<mxfile host="app.diagrams.net" agent="Mozilla/5.0 (Windows NT 10.0; Win64; x64) AppleWebKit/537.36 (KHTML, like Gecko) Chrome/131.0.0.0 Safari/537.36 Edg/131.0.0.0" version="26.0.4">
  <diagram name="Page-1" id="Sbhwr9Emvxmzye7IRsCN">
    <mxGraphModel dx="1243" dy="749" grid="1" gridSize="10" guides="1" tooltips="1" connect="1" arrows="1" fold="1" page="1" pageScale="1" pageWidth="850" pageHeight="1100" math="0" shadow="0">
      <root>
        <mxCell id="0" />
        <mxCell id="1" parent="0" />
        <mxCell id="xpL8FgRuAcjYB7nAr3ik-2" value="" style="shape=image;verticalLabelPosition=bottom;labelBackgroundColor=default;verticalAlign=top;aspect=fixed;imageAspect=0;image=data:image/svg+xml,PHN2ZyB4bWxucz0iaHR0cDovL3d3dy53My5vcmcvMjAwMC9zdmciIHhtbG5zOnhsaW5rPSJodHRwOi8vd3d3LnczLm9yZy8xOTk5L3hsaW5rIiB2ZXJzaW9uPSIxLjEiIHZpZXdCb3g9IjAgMCAzNTIuNzAxNTYyIDUwMC44NTc4MTIiIGhlaWdodD0iNTAwLjg1NzgxMnB0IiB3aWR0aD0iMzUyLjcwMTU2MnB0Ij4mI3hhOyA8bWV0YWRhdGE+JiN4YTsgICYjeGE7ICAgJiN4YTsgICAgJiN4YTsgICAgMjAyNS0wMS0wOFQwMToyNToyMi45NjE1MjUmI3hhOyAgICBpbWFnZS9zdmcreG1sJiN4YTsgICAgJiN4YTsgICAgICYjeGE7ICAgICAgTWF0cGxvdGxpYiB2My41LjMsIGh0dHBzOi8vbWF0cGxvdGxpYi5vcmcvJiN4YTsgICAgICYjeGE7ICAgICYjeGE7ICAgJiN4YTsgICYjeGE7IDwvbWV0YWRhdGE+JiN4YTsgPGRlZnM+JiN4YTsgIDxzdHlsZSB0eXBlPSJ0ZXh0L2NzcyI+KntzdHJva2UtbGluZWpvaW46IHJvdW5kOyBzdHJva2UtbGluZWNhcDogYnV0dH08L3N0eWxlPiYjeGE7IDwvZGVmcz4mI3hhOyA8ZyBpZD0iZmlndXJlXzEiPiYjeGE7ICA8ZyBpZD0icGF0Y2hfMSI+JiN4YTsgICA8cGF0aCBzdHlsZT0iZmlsbDogI2ZmZmZmZiIgZD0iTSAwIDUwMC44NTc4MTIgJiMxMDtMIDM1Mi43MDE1NjIgNTAwLjg1NzgxMiAmIzEwO0wgMzUyLjcwMTU2MiAwICYjMTA7TCAwIDAgJiMxMDt6Ii8+JiN4YTsgIDwvZz4mI3hhOyAgPGcgaWQ9ImF4ZXNfMSI+JiN4YTsgICA8ZyBpZD0icGF0Y2hfMiI+JiN4YTsgICAgPHBhdGggc3R5bGU9ImZpbGw6ICNmZmZmZmYiIGQ9Ik0gNjYuNTAxNTYzIDEzNy42NDcwNTkgJiMxMDtMIDM0NS41MDE1NjIgMTM3LjY0NzA1OSAmIzEwO0wgMzQ1LjUwMTU2MiA3LjIgJiMxMDtMIDY2LjUwMTU2MyA3LjIgJiMxMDt6Ii8+JiN4YTsgICA8L2c+JiN4YTsgICA8ZyBpZD0iUGF0aENvbGxlY3Rpb25fMSI+JiN4YTsgICAgPGRlZnM+JiN4YTsgICAgIDxwYXRoIHN0eWxlPSJzdHJva2U6ICMwMDAwMDAiIGQ9Ik0gMCAzLjE2MjI3OCAmIzEwO0MgMC44Mzg2NDYgMy4xNjIyNzggMS42NDMwNTYgMi44MjkwOCAyLjIzNjA2OCAyLjIzNjA2OCAmIzEwO0MgMi44MjkwOCAxLjY0MzA1NiAzLjE2MjI3OCAwLjgzODY0NiAzLjE2MjI3OCAwICYjMTA7QyAzLjE2MjI3OCAtMC44Mzg2NDYgMi44MjkwOCAtMS42NDMwNTYgMi4yMzYwNjggLTIuMjM2MDY4ICYjMTA7QyAxLjY0MzA1NiAtMi44MjkwOCAwLjgzODY0NiAtMy4xNjIyNzggMCAtMy4xNjIyNzggJiMxMDtDIC0wLjgzODY0NiAtMy4xNjIyNzggLTEuNjQzMDU2IC0yLjgyOTA4IC0yLjIzNjA2OCAtMi4yMzYwNjggJiMxMDtDIC0yLjgyOTA4IC0xLjY0MzA1NiAtMy4xNjIyNzggLTAuODM4NjQ2IC0zLjE2MjI3OCAwICYjMTA7QyAtMy4xNjIyNzggMC44Mzg2NDYgLTIuODI5MDggMS42NDMwNTYgLTIuMjM2MDY4IDIuMjM2MDY4ICYjMTA7QyAtMS42NDMwNTYgMi44MjkwOCAtMC44Mzg2NDYgMy4xNjIyNzggMCAzLjE2MjI3OCAmIzEwO3oiIGlkPSJtNGNmZWExYTQ5ZSIvPiYjeGE7ICAgIDwvZGVmcz4mI3hhOyAgICA8ZyBjbGlwLXBhdGg9InVybCgjcGQ4MDljOGFiNjEpIj4mI3hhOyAgICAgPHVzZSBzdHlsZT0iZmlsbDogIzY2YzJhNTsgc3Ryb2tlOiAjMDAwMDAwIiB5PSIxMzEuNzE3NjQ3IiB4PSI4MC42NjMzNzUiIHhsaW5rOmhyZWY9IiNtNGNmZWExYTQ5ZSIvPiYjeGE7ICAgICA8dXNlIHN0eWxlPSJmaWxsOiAjNjZjMmE1OyBzdHJva2U6ICMwMDAwMDAiIHk9IjEzMS43MTc2NDciIHg9Ijc5LjM1MjU1IiB4bGluazpocmVmPSIjbTRjZmVhMWE0OWUiLz4mI3hhOyAgICAgPHVzZSBzdHlsZT0iZmlsbDogIzY2YzJhNTsgc3Ryb2tlOiAjMDAwMDAwIiB5PSIxMzEuNzE3NjQ3IiB4PSI3OS4zOTA1MTciIHhsaW5rOmhyZWY9IiNtNGNmZWExYTQ5ZSIvPiYjeGE7ICAgICA8dXNlIHN0eWxlPSJmaWxsOiAjNjZjMmE1OyBzdHJva2U6ICMwMDAwMDAiIHk9IjEzMS43MTc2NDciIHg9Ijc5LjM3MzQ1NiIgeGxpbms6aHJlZj0iI200Y2ZlYTFhNDllIi8+JiN4YTsgICAgIDx1c2Ugc3R5bGU9ImZpbGw6ICM2NmMyYTU7IHN0cm9rZTogIzAwMDAwMCIgeT0iMTMxLjcxNzY0NyIgeD0iNzkuMzY1NTI2IiB4bGluazpocmVmPSIjbTRjZmVhMWE0OWUiLz4mI3hhOyAgICAgPHVzZSBzdHlsZT0iZmlsbDogIzY2YzJhNTsgc3Ryb2tlOiAjMDAwMDAwIiB5PSIxMDQuOTg2NDg0IiB4PSI3OS4zMjcwNzkiIHhsaW5rOmhyZWY9IiNtNGNmZWExYTQ5ZSIvPiYjeGE7ICAgICA8dXNlIHN0eWxlPSJmaWxsOiAjNjZjMmE1OyBzdHJva2U6ICMwMDAwMDAiIHk9IjEwNC45ODY0ODQiIHg9Ijc5LjE4MzM4MSIgeGxpbms6aHJlZj0iI200Y2ZlYTFhNDllIi8+JiN4YTsgICAgIDx1c2Ugc3R5bGU9ImZpbGw6ICM2NmMyYTU7IHN0cm9rZTogIzAwMDAwMCIgeT0iMTMuMTI5NDEyIiB4PSIzMzIuODE5NzQ0IiB4bGluazpocmVmPSIjbTRjZmVhMWE0OWUiLz4mI3hhOyAgICAgPHVzZSBzdHlsZT0iZmlsbDogIzY2YzJhNTsgc3Ryb2tlOiAjMDAwMDAwIiB5PSIxMy4zNDQwMzgiIHg9IjE5Mi4wMjI3MTIiIHhsaW5rOmhyZWY9IiNtNGNmZWExYTQ5ZSIvPiYjeGE7ICAgICA8dXNlIHN0eWxlPSJmaWxsOiAjNjZjMmE1OyBzdHJva2U6ICMwMDAwMDAiIHk9IjE0LjM1NzEzNiIgeD0iMTQ4Ljg4ODI3NyIgeGxpbms6aHJlZj0iI200Y2ZlYTFhNDllIi8+JiN4YTsgICAgIDx1c2Ugc3R5bGU9ImZpbGw6ICM2NmMyYTU7IHN0cm9rZTogIzAwMDAwMCIgeT0iMTQuMzUzMTU5IiB4PSIxNzEuMTc1MTg3IiB4bGluazpocmVmPSIjbTRjZmVhMWE0OWUiLz4mI3hhOyAgICA8L2c+JiN4YTsgICA8L2c+JiN4YTsgICA8ZyBpZD0ibWF0cGxvdGxpYi5heGlzXzEiPiYjeGE7ICAgIDxnIGlkPSJ4dGlja18xIj4mI3hhOyAgICAgPGcgaWQ9ImxpbmUyZF8xIj4mI3hhOyAgICAgIDxwYXRoIHN0eWxlPSJmaWxsOiBub25lOyBzdHJva2U6ICNiMGIwYjA7IHN0cm9rZS13aWR0aDogMC44OyBzdHJva2UtbGluZWNhcDogc3F1YXJlIiBjbGlwLXBhdGg9InVybCgjcGQ4MDljOGFiNjEpIiBkPSJNIDczLjc4MTk2NCAxMzcuNjQ3MDU5ICYjMTA7TCA3My43ODE5NjQgNy4yIi8+JiN4YTsgICAgIDwvZz4mI3hhOyAgICAgPGcgaWQ9ImxpbmUyZF8yIj4mI3hhOyAgICAgIDxkZWZzPiYjeGE7ICAgICAgIDxwYXRoIHN0eWxlPSJzdHJva2U6ICMwMDAwMDA7IHN0cm9rZS13aWR0aDogMC44IiBkPSJNIDAgMCAmIzEwO0wgMCAzLjUiIGlkPSJtNWJiZWVkOWMxZCIvPiYjeGE7ICAgICAgPC9kZWZzPiYjeGE7ICAgICAgPGc+JiN4YTsgICAgICAgPHVzZSBzdHlsZT0ic3Ryb2tlOiAjMDAwMDAwOyBzdHJva2Utd2lkdGg6IDAuOCIgeT0iMTM3LjY0NzA1OSIgeD0iNzMuNzgxOTY0IiB4bGluazpocmVmPSIjbTViYmVlZDljMWQiLz4mI3hhOyAgICAgIDwvZz4mI3hhOyAgICAgPC9nPiYjeGE7ICAgIDwvZz4mI3hhOyAgICA8ZyBpZD0ieHRpY2tfMiI+JiN4YTsgICAgIDxnIGlkPSJsaW5lMmRfMyI+JiN4YTsgICAgICA8cGF0aCBzdHlsZT0iZmlsbDogbm9uZTsgc3Ryb2tlOiAjYjBiMGIwOyBzdHJva2Utd2lkdGg6IDAuODsgc3Ryb2tlLWxpbmVjYXA6IHNxdWFyZSIgY2xpcC1wYXRoPSJ1cmwoI3BkODA5YzhhYjYxKSIgZD0iTSAxMjEuODQxNTQ2IDEzNy42NDcwNTkgJiMxMDtMIDEyMS44NDE1NDYgNy4yIi8+JiN4YTsgICAgIDwvZz4mI3hhOyAgICAgPGcgaWQ9ImxpbmUyZF80Ij4mI3hhOyAgICAgIDxnPiYjeGE7ICAgICAgIDx1c2Ugc3R5bGU9InN0cm9rZTogIzAwMDAwMDsgc3Ryb2tlLXdpZHRoOiAwLjgiIHk9IjEzNy42NDcwNTkiIHg9IjEyMS44NDE1NDYiIHhsaW5rOmhyZWY9IiNtNWJiZWVkOWMxZCIvPiYjeGE7ICAgICAgPC9nPiYjeGE7ICAgICA8L2c+JiN4YTsgICAgPC9nPiYjeGE7ICAgIDxnIGlkPSJ4dGlja18zIj4mI3hhOyAgICAgPGcgaWQ9ImxpbmUyZF81Ij4mI3hhOyAgICAgIDxwYXRoIHN0eWxlPSJmaWxsOiBub25lOyBzdHJva2U6ICNiMGIwYjA7IHN0cm9rZS13aWR0aDogMC44OyBzdHJva2UtbGluZWNhcDogc3F1YXJlIiBjbGlwLXBhdGg9InVybCgjcGQ4MDljOGFiNjEpIiBkPSJNIDE2OS45MDExMjcgMTM3LjY0NzA1OSAmIzEwO0wgMTY5LjkwMTEyNyA3LjIiLz4mI3hhOyAgICAgPC9nPiYjeGE7ICAgICA8ZyBpZD0ibGluZTJkXzYiPiYjeGE7ICAgICAgPGc+JiN4YTsgICAgICAgPHVzZSBzdHlsZT0ic3Ryb2tlOiAjMDAwMDAwOyBzdHJva2Utd2lkdGg6IDAuOCIgeT0iMTM3LjY0NzA1OSIgeD0iMTY5LjkwMTEyNyIgeGxpbms6aHJlZj0iI201YmJlZWQ5YzFkIi8+JiN4YTsgICAgICA8L2c+JiN4YTsgICAgIDwvZz4mI3hhOyAgICA8L2c+JiN4YTsgICAgPGcgaWQ9Inh0aWNrXzQiPiYjeGE7ICAgICA8ZyBpZD0ibGluZTJkXzciPiYjeGE7ICAgICAgPHBhdGggc3R5bGU9ImZpbGw6IG5vbmU7IHN0cm9rZTogI2IwYjBiMDsgc3Ryb2tlLXdpZHRoOiAwLjg7IHN0cm9rZS1saW5lY2FwOiBzcXVhcmUiIGNsaXAtcGF0aD0idXJsKCNwZDgwOWM4YWI2MSkiIGQ9Ik0gMjE3Ljk2MDcwOSAxMzcuNjQ3MDU5ICYjMTA7TCAyMTcuOTYwNzA5IDcuMiIvPiYjeGE7ICAgICA8L2c+JiN4YTsgICAgIDxnIGlkPSJsaW5lMmRfOCI+JiN4YTsgICAgICA8Zz4mI3hhOyAgICAgICA8dXNlIHN0eWxlPSJzdHJva2U6ICMwMDAwMDA7IHN0cm9rZS13aWR0aDogMC44IiB5PSIxMzcuNjQ3MDU5IiB4PSIyMTcuOTYwNzA5IiB4bGluazpocmVmPSIjbTViYmVlZDljMWQiLz4mI3hhOyAgICAgIDwvZz4mI3hhOyAgICAgPC9nPiYjeGE7ICAgIDwvZz4mI3hhOyAgICA8ZyBpZD0ieHRpY2tfNSI+JiN4YTsgICAgIDxnIGlkPSJsaW5lMmRfOSI+JiN4YTsgICAgICA8cGF0aCBzdHlsZT0iZmlsbDogbm9uZTsgc3Ryb2tlOiAjYjBiMGIwOyBzdHJva2Utd2lkdGg6IDAuODsgc3Ryb2tlLWxpbmVjYXA6IHNxdWFyZSIgY2xpcC1wYXRoPSJ1cmwoI3BkODA5YzhhYjYxKSIgZD0iTSAyNjYuMDIwMjkgMTM3LjY0NzA1OSAmIzEwO0wgMjY2LjAyMDI5IDcuMiIvPiYjeGE7ICAgICA8L2c+JiN4YTsgICAgIDxnIGlkPSJsaW5lMmRfMTAiPiYjeGE7ICAgICAgPGc+JiN4YTsgICAgICAgPHVzZSBzdHlsZT0ic3Ryb2tlOiAjMDAwMDAwOyBzdHJva2Utd2lkdGg6IDAuOCIgeT0iMTM3LjY0NzA1OSIgeD0iMjY2LjAyMDI5IiB4bGluazpocmVmPSIjbTViYmVlZDljMWQiLz4mI3hhOyAgICAgIDwvZz4mI3hhOyAgICAgPC9nPiYjeGE7ICAgIDwvZz4mI3hhOyAgICA8ZyBpZD0ieHRpY2tfNiI+JiN4YTsgICAgIDxnIGlkPSJsaW5lMmRfMTEiPiYjeGE7ICAgICAgPHBhdGggc3R5bGU9ImZpbGw6IG5vbmU7IHN0cm9rZTogI2IwYjBiMDsgc3Ryb2tlLXdpZHRoOiAwLjg7IHN0cm9rZS1saW5lY2FwOiBzcXVhcmUiIGNsaXAtcGF0aD0idXJsKCNwZDgwOWM4YWI2MSkiIGQ9Ik0gMzE0LjA3OTg3MiAxMzcuNjQ3MDU5ICYjMTA7TCAzMTQuMDc5ODcyIDcuMiIvPiYjeGE7ICAgICA8L2c+JiN4YTsgICAgIDxnIGlkPSJsaW5lMmRfMTIiPiYjeGE7ICAgICAgPGc+JiN4YTsgICAgICAgPHVzZSBzdHlsZT0ic3Ryb2tlOiAjMDAwMDAwOyBzdHJva2Utd2lkdGg6IDAuOCIgeT0iMTM3LjY0NzA1OSIgeD0iMzE0LjA3OTg3MiIgeGxpbms6aHJlZj0iI201YmJlZWQ5YzFkIi8+JiN4YTsgICAgICA8L2c+JiN4YTsgICAgIDwvZz4mI3hhOyAgICA8L2c+JiN4YTsgICA8L2c+JiN4YTsgICA8ZyBpZD0ibWF0cGxvdGxpYi5heGlzXzIiPiYjeGE7ICAgIDxnIGlkPSJ5dGlja18xIj4mI3hhOyAgICAgPGcgaWQ9ImxpbmUyZF8xMyI+JiN4YTsgICAgICA8cGF0aCBzdHlsZT0iZmlsbDogbm9uZTsgc3Ryb2tlOiAjYjBiMGIwOyBzdHJva2Utd2lkdGg6IDAuODsgc3Ryb2tlLWxpbmVjYXA6IHNxdWFyZSIgY2xpcC1wYXRoPSJ1cmwoI3BkODA5YzhhYjYxKSIgZD0iTSA2Ni41MDE1NjMgMTEzLjY5OTYzNyAmIzEwO0wgMzQ1LjUwMTU2MiAxMTMuNjk5NjM3Ii8+JiN4YTsgICAgIDwvZz4mI3hhOyAgICAgPGcgaWQ9ImxpbmUyZF8xNCI+JiN4YTsgICAgICA8ZGVmcz4mI3hhOyAgICAgICA8cGF0aCBzdHlsZT0ic3Ryb2tlOiAjMDAwMDAwOyBzdHJva2Utd2lkdGg6IDAuOCIgZD0iTSAwIDAgJiMxMDtMIC0zLjUgMCIgaWQ9Im0yNjQ1MzJmOWU3Ii8+JiN4YTsgICAgICA8L2RlZnM+JiN4YTsgICAgICA8Zz4mI3hhOyAgICAgICA8dXNlIHN0eWxlPSJzdHJva2U6ICMwMDAwMDA7IHN0cm9rZS13aWR0aDogMC44IiB5PSIxMTMuNjk5NjM3IiB4PSI2Ni41MDE1NjMiIHhsaW5rOmhyZWY9IiNtMjY0NTMyZjllNyIvPiYjeGE7ICAgICAgPC9nPiYjeGE7ICAgICA8L2c+JiN4YTsgICAgIDxnIGlkPSJ0ZXh0XzEiPiYjeGE7ICAgICAgJiN4YTsgICAgICA8ZyB0cmFuc2Zvcm09InRyYW5zbGF0ZSgzMC41NTYyNSAxMTguNjM4NjIxKXNjYWxlKDAuMTMgLTAuMTMpIj4mI3hhOyAgICAgICA8ZGVmcz4mI3hhOyAgICAgICAgPHBhdGggdHJhbnNmb3JtPSJzY2FsZSgwLjAxNTYyNSkiIGQ9Ik0gMjAzNCA0MjUwICYjMTA7USAxNTQ3IDQyNTAgMTMwMSAzNzcwICYjMTA7USAxMDU2IDMyOTEgMTA1NiAyMzI4ICYjMTA7USAxMDU2IDEzNjkgMTMwMSA4ODkgJiMxMDtRIDE1NDcgNDA5IDIwMzQgNDA5ICYjMTA7USAyNTI1IDQwOSAyNzcwIDg4OSAmIzEwO1EgMzAxNiAxMzY5IDMwMTYgMjMyOCAmIzEwO1EgMzAxNiAzMjkxIDI3NzAgMzc3MCAmIzEwO1EgMjUyNSA0MjUwIDIwMzQgNDI1MCAmIzEwO3omIzEwO00gMjAzNCA0NzUwICYjMTA7USAyODE5IDQ3NTAgMzIzMyA0MTI5ICYjMTA7USAzNjQ3IDM1MDkgMzY0NyAyMzI4ICYjMTA7USAzNjQ3IDExNTAgMzIzMyA1MjkgJiMxMDtRIDI4MTkgLTkxIDIwMzQgLTkxICYjMTA7USAxMjUwIC05MSA4MzYgNTI5ICYjMTA7USA0MjIgMTE1MCA0MjIgMjMyOCAmIzEwO1EgNDIyIDM1MDkgODM2IDQxMjkgJiMxMDtRIDEyNTAgNDc1MCAyMDM0IDQ3NTAgJiMxMDt6IiBpZD0iRGVqYVZ1U2Fucy0zMCIvPiYjeGE7ICAgICAgICA8cGF0aCB0cmFuc2Zvcm09InNjYWxlKDAuMDE1NjI1KSIgZD0iTSA2ODQgNzk0ICYjMTA7TCAxMzQ0IDc5NCAmIzEwO0wgMTM0NCAwICYjMTA7TCA2ODQgMCAmIzEwO0wgNjg0IDc5NCAmIzEwO3oiIGlkPSJEZWphVnVTYW5zLTJlIi8+JiN4YTsgICAgICAgIDxwYXRoIHRyYW5zZm9ybT0ic2NhbGUoMC4wMTU2MjUpIiBkPSJNIDc5NCA1MzEgJiMxMDtMIDE4MjUgNTMxICYjMTA7TCAxODI1IDQwOTEgJiMxMDtMIDcwMyAzODY2ICYjMTA7TCA3MDMgNDQ0MSAmIzEwO0wgMTgxOSA0NjY2ICYjMTA7TCAyNDUwIDQ2NjYgJiMxMDtMIDI0NTAgNTMxICYjMTA7TCAzNDgxIDUzMSAmIzEwO0wgMzQ4MSAwICYjMTA7TCA3OTQgMCAmIzEwO0wgNzk0IDUzMSAmIzEwO3oiIGlkPSJEZWphVnVTYW5zLTMxIi8+JiN4YTsgICAgICAgIDxwYXRoIHRyYW5zZm9ybT0ic2NhbGUoMC4wMTU2MjUpIiBkPSJNIDY5MSA0NjY2ICYjMTA7TCAzMTY5IDQ2NjYgJiMxMDtMIDMxNjkgNDEzNCAmIzEwO0wgMTI2OSA0MTM0ICYjMTA7TCAxMjY5IDI5OTEgJiMxMDtRIDE0MDYgMzAzOCAxNTQzIDMwNjEgJiMxMDtRIDE2ODEgMzA4NCAxODE5IDMwODQgJiMxMDtRIDI2MDAgMzA4NCAzMDU2IDI2NTYgJiMxMDtRIDM1MTMgMjIyOCAzNTEzIDE0OTcgJiMxMDtRIDM1MTMgNzQ0IDMwNDQgMzI2ICYjMTA7USAyNTc1IC05MSAxNzIyIC05MSAmIzEwO1EgMTQyOCAtOTEgMTEyMyAtNDEgJiMxMDtRIDgxOSA5IDQ5NCAxMDkgJiMxMDtMIDQ5NCA3NDQgJiMxMDtRIDc3NSA1OTEgMTA3NSA1MTYgJiMxMDtRIDEzNzUgNDQxIDE3MDkgNDQxICYjMTA7USAyMjUwIDQ0MSAyNTY1IDcyNSAmIzEwO1EgMjg4MSAxMDA5IDI4ODEgMTQ5NyAmIzEwO1EgMjg4MSAxOTg0IDI1NjUgMjI2OCAmIzEwO1EgMjI1MCAyNTUzIDE3MDkgMjU1MyAmIzEwO1EgMTQ1NiAyNTUzIDEyMDQgMjQ5NyAmIzEwO1EgOTUzIDI0NDEgNjkxIDIzMjIgJiMxMDtMIDY5MSA0NjY2ICYjMTA7eiIgaWQ9IkRlamFWdVNhbnMtMzUiLz4mI3hhOyAgICAgICA8L2RlZnM+JiN4YTsgICAgICAgPHVzZSB4bGluazpocmVmPSIjRGVqYVZ1U2Fucy0zMCIvPiYjeGE7ICAgICAgIDx1c2UgeD0iNjMuNjIzMDQ3IiB4bGluazpocmVmPSIjRGVqYVZ1U2Fucy0yZSIvPiYjeGE7ICAgICAgIDx1c2UgeD0iOTUuNDEwMTU2IiB4bGluazpocmVmPSIjRGVqYVZ1U2Fucy0zMSIvPiYjeGE7ICAgICAgIDx1c2UgeD0iMTU5LjAzMzIwMyIgeGxpbms6aHJlZj0iI0RlamFWdVNhbnMtMzUiLz4mI3hhOyAgICAgIDwvZz4mI3hhOyAgICAgPC9nPiYjeGE7ICAgIDwvZz4mI3hhOyAgICA8ZyBpZD0ieXRpY2tfMiI+JiN4YTsgICAgIDxnIGlkPSJsaW5lMmRfMTUiPiYjeGE7ICAgICAgPHBhdGggc3R5bGU9ImZpbGw6IG5vbmU7IHN0cm9rZTogI2IwYjBiMDsgc3Ryb2tlLXdpZHRoOiAwLjg7IHN0cm9rZS1saW5lY2FwOiBzcXVhcmUiIGNsaXAtcGF0aD0idXJsKCNwZDgwOWM4YWI2MSkiIGQ9Ik0gNjYuNTAxNTYzIDgwLjcwOTI2MiAmIzEwO0wgMzQ1LjUwMTU2MiA4MC43MDkyNjIiLz4mI3hhOyAgICAgPC9nPiYjeGE7ICAgICA8ZyBpZD0ibGluZTJkXzE2Ij4mI3hhOyAgICAgIDxnPiYjeGE7ICAgICAgIDx1c2Ugc3R5bGU9InN0cm9rZTogIzAwMDAwMDsgc3Ryb2tlLXdpZHRoOiAwLjgiIHk9IjgwLjcwOTI2MiIgeD0iNjYuNTAxNTYzIiB4bGluazpocmVmPSIjbTI2NDUzMmY5ZTciLz4mI3hhOyAgICAgIDwvZz4mI3hhOyAgICAgPC9nPiYjeGE7ICAgICA8ZyBpZD0idGV4dF8yIj4mI3hhOyAgICAgICYjeGE7ICAgICAgPGcgdHJhbnNmb3JtPSJ0cmFuc2xhdGUoMzAuNTU2MjUgODUuNjQ4MjQ3KXNjYWxlKDAuMTMgLTAuMTMpIj4mI3hhOyAgICAgICA8ZGVmcz4mI3hhOyAgICAgICAgPHBhdGggdHJhbnNmb3JtPSJzY2FsZSgwLjAxNTYyNSkiIGQ9Ik0gMTIyOCA1MzEgJiMxMDtMIDM0MzEgNTMxICYjMTA7TCAzNDMxIDAgJiMxMDtMIDQ2OSAwICYjMTA7TCA0NjkgNTMxICYjMTA7USA4MjggOTAzIDE0NDggMTUyOSAmIzEwO1EgMjA2OSAyMTU2IDIyMjggMjMzOCAmIzEwO1EgMjUzMSAyNjc4IDI2NTEgMjkxNCAmIzEwO1EgMjc3MiAzMTUwIDI3NzIgMzM3OCAmIzEwO1EgMjc3MiAzNzUwIDI1MTEgMzk4NCAmIzEwO1EgMjI1MCA0MjE5IDE4MzEgNDIxOSAmIzEwO1EgMTUzNCA0MjE5IDEyMDQgNDExNiAmIzEwO1EgODc1IDQwMTMgNTAwIDM4MDMgJiMxMDtMIDUwMCA0NDQxICYjMTA7USA4ODEgNDU5NCAxMjEyIDQ2NzIgJiMxMDtRIDE1NDQgNDc1MCAxODE5IDQ3NTAgJiMxMDtRIDI1NDQgNDc1MCAyOTc1IDQzODcgJiMxMDtRIDM0MDYgNDAyNSAzNDA2IDM0MTkgJiMxMDtRIDM0MDYgMzEzMSAzMjk4IDI4NzMgJiMxMDtRIDMxOTEgMjYxNiAyOTA2IDIyNjYgJiMxMDtRIDI4MjggMjE3NSAyNDA5IDE3NDIgJiMxMDtRIDE5OTEgMTMwOSAxMjI4IDUzMSAmIzEwO3oiIGlkPSJEZWphVnVTYW5zLTMyIi8+JiN4YTsgICAgICAgPC9kZWZzPiYjeGE7ICAgICAgIDx1c2UgeGxpbms6aHJlZj0iI0RlamFWdVNhbnMtMzAiLz4mI3hhOyAgICAgICA8dXNlIHg9IjYzLjYyMzA0NyIgeGxpbms6aHJlZj0iI0RlamFWdVNhbnMtMmUiLz4mI3hhOyAgICAgICA8dXNlIHg9Ijk1LjQxMDE1NiIgeGxpbms6aHJlZj0iI0RlamFWdVNhbnMtMzIiLz4mI3hhOyAgICAgICA8dXNlIHg9IjE1OS4wMzMyMDMiIHhsaW5rOmhyZWY9IiNEZWphVnVTYW5zLTMwIi8+JiN4YTsgICAgICA8L2c+JiN4YTsgICAgIDwvZz4mI3hhOyAgICA8L2c+JiN4YTsgICAgPGcgaWQ9Inl0aWNrXzMiPiYjeGE7ICAgICA8ZyBpZD0ibGluZTJkXzE3Ij4mI3hhOyAgICAgIDxwYXRoIHN0eWxlPSJmaWxsOiBub25lOyBzdHJva2U6ICNiMGIwYjA7IHN0cm9rZS13aWR0aDogMC44OyBzdHJva2UtbGluZWNhcDogc3F1YXJlIiBjbGlwLXBhdGg9InVybCgjcGQ4MDljOGFiNjEpIiBkPSJNIDY2LjUwMTU2MyA0Ny43MTg4ODggJiMxMDtMIDM0NS41MDE1NjIgNDcuNzE4ODg4Ii8+JiN4YTsgICAgIDwvZz4mI3hhOyAgICAgPGcgaWQ9ImxpbmUyZF8xOCI+JiN4YTsgICAgICA8Zz4mI3hhOyAgICAgICA8dXNlIHN0eWxlPSJzdHJva2U6ICMwMDAwMDA7IHN0cm9rZS13aWR0aDogMC44IiB5PSI0Ny43MTg4ODgiIHg9IjY2LjUwMTU2MyIgeGxpbms6aHJlZj0iI20yNjQ1MzJmOWU3Ii8+JiN4YTsgICAgICA8L2c+JiN4YTsgICAgIDwvZz4mI3hhOyAgICAgPGcgaWQ9InRleHRfMyI+JiN4YTsgICAgICAmI3hhOyAgICAgIDxnIHRyYW5zZm9ybT0idHJhbnNsYXRlKDMwLjU1NjI1IDUyLjY1Nzg3MilzY2FsZSgwLjEzIC0wLjEzKSI+JiN4YTsgICAgICAgPHVzZSB4bGluazpocmVmPSIjRGVqYVZ1U2Fucy0zMCIvPiYjeGE7ICAgICAgIDx1c2UgeD0iNjMuNjIzMDQ3IiB4bGluazpocmVmPSIjRGVqYVZ1U2Fucy0yZSIvPiYjeGE7ICAgICAgIDx1c2UgeD0iOTUuNDEwMTU2IiB4bGluazpocmVmPSIjRGVqYVZ1U2Fucy0zMiIvPiYjeGE7ICAgICAgIDx1c2UgeD0iMTU5LjAzMzIwMyIgeGxpbms6aHJlZj0iI0RlamFWdVNhbnMtMzUiLz4mI3hhOyAgICAgIDwvZz4mI3hhOyAgICAgPC9nPiYjeGE7ICAgIDwvZz4mI3hhOyAgICA8ZyBpZD0ieXRpY2tfNCI+JiN4YTsgICAgIDxnIGlkPSJsaW5lMmRfMTkiPiYjeGE7ICAgICAgPHBhdGggc3R5bGU9ImZpbGw6IG5vbmU7IHN0cm9rZTogI2IwYjBiMDsgc3Ryb2tlLXdpZHRoOiAwLjg7IHN0cm9rZS1saW5lY2FwOiBzcXVhcmUiIGNsaXAtcGF0aD0idXJsKCNwZDgwOWM4YWI2MSkiIGQ9Ik0gNjYuNTAxNTYzIDE0LjcyODUxMyAmIzEwO0wgMzQ1LjUwMTU2MiAxNC43Mjg1MTMiLz4mI3hhOyAgICAgPC9nPiYjeGE7ICAgICA8ZyBpZD0ibGluZTJkXzIwIj4mI3hhOyAgICAgIDxnPiYjeGE7ICAgICAgIDx1c2Ugc3R5bGU9InN0cm9rZTogIzAwMDAwMDsgc3Ryb2tlLXdpZHRoOiAwLjgiIHk9IjE0LjcyODUxMyIgeD0iNjYuNTAxNTYzIiB4bGluazpocmVmPSIjbTI2NDUzMmY5ZTciLz4mI3hhOyAgICAgIDwvZz4mI3hhOyAgICAgPC9nPiYjeGE7ICAgICA8ZyBpZD0idGV4dF80Ij4mI3hhOyAgICAgICYjeGE7ICAgICAgPGcgdHJhbnNmb3JtPSJ0cmFuc2xhdGUoMzAuNTU2MjUgMTkuNjY3NDk4KXNjYWxlKDAuMTMgLTAuMTMpIj4mI3hhOyAgICAgICA8ZGVmcz4mI3hhOyAgICAgICAgPHBhdGggdHJhbnNmb3JtPSJzY2FsZSgwLjAxNTYyNSkiIGQ9Ik0gMjU5NyAyNTE2ICYjMTA7USAzMDUwIDI0MTkgMzMwNCAyMTEyICYjMTA7USAzNTU5IDE4MDYgMzU1OSAxMzU2ICYjMTA7USAzNTU5IDY2NiAzMDg0IDI4NyAmIzEwO1EgMjYwOSAtOTEgMTczNCAtOTEgJiMxMDtRIDE0NDEgLTkxIDExMzAgLTMzICYjMTA7USA4MTkgMjUgNDg4IDE0MSAmIzEwO0wgNDg4IDc1MCAmIzEwO1EgNzUwIDU5NyAxMDYyIDUxOSAmIzEwO1EgMTM3NSA0NDEgMTcxNiA0NDEgJiMxMDtRIDIzMDkgNDQxIDI2MjAgNjc1ICYjMTA7USAyOTMxIDkwOSAyOTMxIDEzNTYgJiMxMDtRIDI5MzEgMTc2OSAyNjQyIDIwMDEgJiMxMDtRIDIzNTMgMjIzNCAxODM4IDIyMzQgJiMxMDtMIDEyOTQgMjIzNCAmIzEwO0wgMTI5NCAyNzUzICYjMTA7TCAxODYzIDI3NTMgJiMxMDtRIDIzMjggMjc1MyAyNTc1IDI5MzkgJiMxMDtRIDI4MjIgMzEyNSAyODIyIDM0NzUgJiMxMDtRIDI4MjIgMzgzNCAyNTY3IDQwMjYgJiMxMDtRIDIzMTMgNDIxOSAxODM4IDQyMTkgJiMxMDtRIDE1NzggNDIxOSAxMjgxIDQxNjIgJiMxMDtRIDk4NCA0MTA2IDYyOCAzOTg4ICYjMTA7TCA2MjggNDU1MCAmIzEwO1EgOTg4IDQ2NTAgMTMwMiA0NzAwICYjMTA7USAxNjE2IDQ3NTAgMTg5NCA0NzUwICYjMTA7USAyNjEzIDQ3NTAgMzAzMSA0NDIzICYjMTA7USAzNDUwIDQwOTcgMzQ1MCAzNTQxICYjMTA7USAzNDUwIDMxNTMgMzIyOCAyODg2ICYjMTA7USAzMDA2IDI2MTkgMjU5NyAyNTE2ICYjMTA7eiIgaWQ9IkRlamFWdVNhbnMtMzMiLz4mI3hhOyAgICAgICA8L2RlZnM+JiN4YTsgICAgICAgPHVzZSB4bGluazpocmVmPSIjRGVqYVZ1U2Fucy0zMCIvPiYjeGE7ICAgICAgIDx1c2UgeD0iNjMuNjIzMDQ3IiB4bGluazpocmVmPSIjRGVqYVZ1U2Fucy0yZSIvPiYjeGE7ICAgICAgIDx1c2UgeD0iOTUuNDEwMTU2IiB4bGluazpocmVmPSIjRGVqYVZ1U2Fucy0zMyIvPiYjeGE7ICAgICAgIDx1c2UgeD0iMTU5LjAzMzIwMyIgeGxpbms6aHJlZj0iI0RlamFWdVNhbnMtMzAiLz4mI3hhOyAgICAgIDwvZz4mI3hhOyAgICAgPC9nPiYjeGE7ICAgIDwvZz4mI3hhOyAgICA8ZyBpZD0idGV4dF81Ij4mI3hhOyAgICAgJiN4YTsgICAgIDxnIHRyYW5zZm9ybT0idHJhbnNsYXRlKDIyLjM5Njg3NSAxMTcuMDM3NTkyKXJvdGF0ZSgtOTApc2NhbGUoMC4yIC0wLjIpIj4mI3hhOyAgICAgIDxkZWZzPiYjeGE7ICAgICAgIDxwYXRoIHRyYW5zZm9ybT0ic2NhbGUoMC4wMTU2MjUpIiBkPSJNIDEyNTkgNDE0NyAmIzEwO0wgMTI1OSAyMzk0ICYjMTA7TCAyMDUzIDIzOTQgJiMxMDtRIDI0OTQgMjM5NCAyNzM0IDI2MjIgJiMxMDtRIDI5NzUgMjg1MCAyOTc1IDMyNzIgJiMxMDtRIDI5NzUgMzY5MSAyNzM0IDM5MTkgJiMxMDtRIDI0OTQgNDE0NyAyMDUzIDQxNDcgJiMxMDtMIDEyNTkgNDE0NyAmIzEwO3omIzEwO00gNjI4IDQ2NjYgJiMxMDtMIDIwNTMgNDY2NiAmIzEwO1EgMjgzOCA0NjY2IDMyMzkgNDMxMSAmIzEwO1EgMzY0MSAzOTU2IDM2NDEgMzI3MiAmIzEwO1EgMzY0MSAyNTgxIDMyMzkgMjIyOCAmIzEwO1EgMjgzOCAxODc1IDIwNTMgMTg3NSAmIzEwO0wgMTI1OSAxODc1ICYjMTA7TCAxMjU5IDAgJiMxMDtMIDYyOCAwICYjMTA7TCA2MjggNDY2NiAmIzEwO3oiIGlkPSJEZWphVnVTYW5zLTUwIi8+JiN4YTsgICAgICAgPHBhdGggdHJhbnNmb3JtPSJzY2FsZSgwLjAxNTYyNSkiIGQ9Ik0gMjYzMSAyOTYzICYjMTA7USAyNTM0IDMwMTkgMjQyMCAzMDQ1ICYjMTA7USAyMzA2IDMwNzIgMjE2OSAzMDcyICYjMTA7USAxNjgxIDMwNzIgMTQyMCAyNzU1ICYjMTA7USAxMTU5IDI0MzggMTE1OSAxODQ0ICYjMTA7TCAxMTU5IDAgJiMxMDtMIDU4MSAwICYjMTA7TCA1ODEgMzUwMCAmIzEwO0wgMTE1OSAzNTAwICYjMTA7TCAxMTU5IDI5NTYgJiMxMDtRIDEzNDEgMzI3NSAxNjMxIDM0MjkgJiMxMDtRIDE5MjIgMzU4NCAyMzM4IDM1ODQgJiMxMDtRIDIzOTcgMzU4NCAyNDY5IDM1NzYgJiMxMDtRIDI1NDEgMzU2OSAyNjI4IDM1NTMgJiMxMDtMIDI2MzEgMjk2MyAmIzEwO3oiIGlkPSJEZWphVnVTYW5zLTcyIi8+JiN4YTsgICAgICAgPHBhdGggdHJhbnNmb3JtPSJzY2FsZSgwLjAxNTYyNSkiIGQ9Ik0gMzU5NyAxODk0ICYjMTA7TCAzNTk3IDE2MTMgJiMxMDtMIDk1MyAxNjEzICYjMTA7USA5OTEgMTAxOSAxMzExIDcwOCAmIzEwO1EgMTYzMSAzOTcgMjIwMyAzOTcgJiMxMDtRIDI1MzQgMzk3IDI4NDUgNDc4ICYjMTA7USAzMTU2IDU1OSAzNDYzIDcyMiAmIzEwO0wgMzQ2MyAxNzggJiMxMDtRIDMxNTMgNDcgMjgyOCAtMjIgJiMxMDtRIDI1MDMgLTkxIDIxNjkgLTkxICYjMTA7USAxMzMxIC05MSA4NDIgMzk2ICYjMTA7USAzNTMgODg0IDM1MyAxNzE2ICYjMTA7USAzNTMgMjU3NSA4MTcgMzA3OSAmIzEwO1EgMTI4MSAzNTg0IDIwNjkgMzU4NCAmIzEwO1EgMjc3NSAzNTg0IDMxODYgMzEyOSAmIzEwO1EgMzU5NyAyNjc1IDM1OTcgMTg5NCAmIzEwO3omIzEwO00gMzAyMiAyMDYzICYjMTA7USAzMDE2IDI1MzQgMjc1OCAyODE1ICYjMTA7USAyNTAwIDMwOTcgMjA3NSAzMDk3ICYjMTA7USAxNTk0IDMwOTcgMTMwNSAyODI1ICYjMTA7USAxMDE2IDI1NTMgOTcyIDIwNTkgJiMxMDtMIDMwMjIgMjA2MyAmIzEwO3oiIGlkPSJEZWphVnVTYW5zLTY1Ii8+JiN4YTsgICAgICAgPHBhdGggdHJhbnNmb3JtPSJzY2FsZSgwLjAxNTYyNSkiIGQ9Ik0gMzEyMiAzMzY2ICYjMTA7TCAzMTIyIDI4MjggJiMxMDtRIDI4NzggMjk2MyAyNjMzIDMwMzAgJiMxMDtRIDIzODggMzA5NyAyMTM4IDMwOTcgJiMxMDtRIDE1NzggMzA5NyAxMjY4IDI3NDIgJiMxMDtRIDk1OSAyMzg4IDk1OSAxNzQ3ICYjMTA7USA5NTkgMTEwNiAxMjY4IDc1MSAmIzEwO1EgMTU3OCAzOTcgMjEzOCAzOTcgJiMxMDtRIDIzODggMzk3IDI2MzMgNDY0ICYjMTA7USAyODc4IDUzMSAzMTIyIDY2NiAmIzEwO0wgMzEyMiAxMzQgJiMxMDtRIDI4ODEgMjIgMjYyMyAtMzQgJiMxMDtRIDIzNjYgLTkxIDIwNzUgLTkxICYjMTA7USAxMjg0IC05MSA4MTggNDA2ICYjMTA7USAzNTMgOTAzIDM1MyAxNzQ3ICYjMTA7USAzNTMgMjYwMyA4MjMgMzA5MyAmIzEwO1EgMTI5NCAzNTg0IDIxMTMgMzU4NCAmIzEwO1EgMjM3OCAzNTg0IDI2MzEgMzUyOSAmIzEwO1EgMjg4NCAzNDc1IDMxMjIgMzM2NiAmIzEwO3oiIGlkPSJEZWphVnVTYW5zLTYzIi8+JiN4YTsgICAgICAgPHBhdGggdHJhbnNmb3JtPSJzY2FsZSgwLjAxNTYyNSkiIGQ9Ik0gNjAzIDM1MDAgJiMxMDtMIDExNzggMzUwMCAmIzEwO0wgMTE3OCAwICYjMTA7TCA2MDMgMCAmIzEwO0wgNjAzIDM1MDAgJiMxMDt6JiMxMDtNIDYwMyA0ODYzICYjMTA7TCAxMTc4IDQ4NjMgJiMxMDtMIDExNzggNDEzNCAmIzEwO0wgNjAzIDQxMzQgJiMxMDtMIDYwMyA0ODYzICYjMTA7eiIgaWQ9IkRlamFWdVNhbnMtNjkiLz4mI3hhOyAgICAgICA8cGF0aCB0cmFuc2Zvcm09InNjYWxlKDAuMDE1NjI1KSIgZD0iTSAyODM0IDMzOTcgJiMxMDtMIDI4MzQgMjg1MyAmIzEwO1EgMjU5MSAyOTc4IDIzMjggMzA0MCAmIzEwO1EgMjA2NiAzMTAzIDE3ODQgMzEwMyAmIzEwO1EgMTM1NiAzMTAzIDExNDIgMjk3MiAmIzEwO1EgOTI4IDI4NDEgOTI4IDI1NzggJiMxMDtRIDkyOCAyMzc4IDEwODEgMjI2NCAmIzEwO1EgMTIzNCAyMTUwIDE2OTcgMjA0NyAmIzEwO0wgMTg5NCAyMDAzICYjMTA7USAyNTA2IDE4NzIgMjc2NCAxNjMzICYjMTA7USAzMDIyIDEzOTQgMzAyMiA5NjYgJiMxMDtRIDMwMjIgNDc4IDI2MzYgMTkzICYjMTA7USAyMjUwIC05MSAxNTc1IC05MSAmIzEwO1EgMTI5NCAtOTEgOTg5IC0zNiAmIzEwO1EgNjg0IDE5IDM0NyAxMjggJiMxMDtMIDM0NyA3MjIgJiMxMDtRIDY2NiA1NTYgOTc1IDQ3MyAmIzEwO1EgMTI4NCAzOTEgMTU4OCAzOTEgJiMxMDtRIDE5OTQgMzkxIDIyMTIgNTMwICYjMTA7USAyNDMxIDY2OSAyNDMxIDkyMiAmIzEwO1EgMjQzMSAxMTU2IDIyNzMgMTI4MSAmIzEwO1EgMjExNiAxNDA2IDE1ODEgMTUyMiAmIzEwO0wgMTM4MSAxNTY5ICYjMTA7USA4NDcgMTY4MSA2MDkgMTkxNCAmIzEwO1EgMzcyIDIxNDcgMzcyIDI1NTMgJiMxMDtRIDM3MiAzMDQ3IDcyMiAzMzE1ICYjMTA7USAxMDcyIDM1ODQgMTcxNiAzNTg0ICYjMTA7USAyMDM0IDM1ODQgMjMxNSAzNTM3ICYjMTA7USAyNTk3IDM0OTEgMjgzNCAzMzk3ICYjMTA7eiIgaWQ9IkRlamFWdVNhbnMtNzMiLz4mI3hhOyAgICAgICA8cGF0aCB0cmFuc2Zvcm09InNjYWxlKDAuMDE1NjI1KSIgZD0iTSAxOTU5IDMwOTcgJiMxMDtRIDE0OTcgMzA5NyAxMjI4IDI3MzYgJiMxMDtRIDk1OSAyMzc1IDk1OSAxNzQ3ICYjMTA7USA5NTkgMTExOSAxMjI2IDc1OCAmIzEwO1EgMTQ5NCAzOTcgMTk1OSAzOTcgJiMxMDtRIDI0MTkgMzk3IDI2ODcgNzU5ICYjMTA7USAyOTU2IDExMjIgMjk1NiAxNzQ3ICYjMTA7USAyOTU2IDIzNjkgMjY4NyAyNzMzICYjMTA7USAyNDE5IDMwOTcgMTk1OSAzMDk3ICYjMTA7eiYjMTA7TSAxOTU5IDM1ODQgJiMxMDtRIDI3MDkgMzU4NCAzMTM3IDMwOTYgJiMxMDtRIDM1NjYgMjYwOSAzNTY2IDE3NDcgJiMxMDtRIDM1NjYgODg4IDMxMzcgMzk4ICYjMTA7USAyNzA5IC05MSAxOTU5IC05MSAmIzEwO1EgMTIwNiAtOTEgNzc5IDM5OCAmIzEwO1EgMzUzIDg4OCAzNTMgMTc0NyAmIzEwO1EgMzUzIDI2MDkgNzc5IDMwOTYgJiMxMDtRIDEyMDYgMzU4NCAxOTU5IDM1ODQgJiMxMDt6IiBpZD0iRGVqYVZ1U2Fucy02ZiIvPiYjeGE7ICAgICAgIDxwYXRoIHRyYW5zZm9ybT0ic2NhbGUoMC4wMTU2MjUpIiBkPSJNIDM1MTMgMjExMyAmIzEwO0wgMzUxMyAwICYjMTA7TCAyOTM4IDAgJiMxMDtMIDI5MzggMjA5NCAmIzEwO1EgMjkzOCAyNTkxIDI3NDQgMjgzNyAmIzEwO1EgMjU1MCAzMDg0IDIxNjMgMzA4NCAmIzEwO1EgMTY5NyAzMDg0IDE0MjggMjc4NyAmIzEwO1EgMTE1OSAyNDkxIDExNTkgMTk3OCAmIzEwO0wgMTE1OSAwICYjMTA7TCA1ODEgMCAmIzEwO0wgNTgxIDM1MDAgJiMxMDtMIDExNTkgMzUwMCAmIzEwO0wgMTE1OSAyOTU2ICYjMTA7USAxMzY2IDMyNzIgMTY0NSAzNDI4ICYjMTA7USAxOTI1IDM1ODQgMjI5MSAzNTg0ICYjMTA7USAyODk0IDM1ODQgMzIwMyAzMjExICYjMTA7USAzNTEzIDI4MzggMzUxMyAyMTEzICYjMTA7eiIgaWQ9IkRlamFWdVNhbnMtNmUiLz4mI3hhOyAgICAgIDwvZGVmcz4mI3hhOyAgICAgIDx1c2UgeGxpbms6aHJlZj0iI0RlamFWdVNhbnMtNTAiLz4mI3hhOyAgICAgIDx1c2UgeD0iNTguNTUyNzM0IiB4bGluazpocmVmPSIjRGVqYVZ1U2Fucy03MiIvPiYjeGE7ICAgICAgPHVzZSB4PSI5Ny40MTYwMTYiIHhsaW5rOmhyZWY9IiNEZWphVnVTYW5zLTY1Ii8+JiN4YTsgICAgICA8dXNlIHg9IjE1OC45Mzk0NTMiIHhsaW5rOmhyZWY9IiNEZWphVnVTYW5zLTYzIi8+JiN4YTsgICAgICA8dXNlIHg9IjIxMy45MTk5MjIiIHhsaW5rOmhyZWY9IiNEZWphVnVTYW5zLTY5Ii8+JiN4YTsgICAgICA8dXNlIHg9IjI0MS43MDMxMjUiIHhsaW5rOmhyZWY9IiNEZWphVnVTYW5zLTczIi8+JiN4YTsgICAgICA8dXNlIHg9IjI5My44MDI3MzQiIHhsaW5rOmhyZWY9IiNEZWphVnVTYW5zLTY5Ii8+JiN4YTsgICAgICA8dXNlIHg9IjMyMS41ODU5MzgiIHhsaW5rOmhyZWY9IiNEZWphVnVTYW5zLTZmIi8+JiN4YTsgICAgICA8dXNlIHg9IjM4Mi43Njc1NzgiIHhsaW5rOmhyZWY9IiNEZWphVnVTYW5zLTZlIi8+JiN4YTsgICAgIDwvZz4mI3hhOyAgICA8L2c+JiN4YTsgICA8L2c+JiN4YTsgICA8ZyBpZD0icGF0Y2hfMyI+JiN4YTsgICAgPHBhdGggc3R5bGU9ImZpbGw6IG5vbmU7IHN0cm9rZTogIzAwMDAwMDsgc3Ryb2tlLXdpZHRoOiAwLjg7IHN0cm9rZS1saW5lam9pbjogbWl0ZXI7IHN0cm9rZS1saW5lY2FwOiBzcXVhcmUiIGQ9Ik0gNjYuNTAxNTYzIDEzNy42NDcwNTkgJiMxMDtMIDY2LjUwMTU2MyA3LjIiLz4mI3hhOyAgIDwvZz4mI3hhOyAgIDxnIGlkPSJwYXRjaF80Ij4mI3hhOyAgICA8cGF0aCBzdHlsZT0iZmlsbDogbm9uZTsgc3Ryb2tlOiAjMDAwMDAwOyBzdHJva2Utd2lkdGg6IDAuODsgc3Ryb2tlLWxpbmVqb2luOiBtaXRlcjsgc3Ryb2tlLWxpbmVjYXA6IHNxdWFyZSIgZD0iTSAzNDUuNTAxNTYyIDEzNy42NDcwNTkgJiMxMDtMIDM0NS41MDE1NjIgNy4yIi8+JiN4YTsgICA8L2c+JiN4YTsgICA8ZyBpZD0icGF0Y2hfNSI+JiN4YTsgICAgPHBhdGggc3R5bGU9ImZpbGw6IG5vbmU7IHN0cm9rZTogIzAwMDAwMDsgc3Ryb2tlLXdpZHRoOiAwLjg7IHN0cm9rZS1saW5lam9pbjogbWl0ZXI7IHN0cm9rZS1saW5lY2FwOiBzcXVhcmUiIGQ9Ik0gNjYuNTAxNTYzIDEzNy42NDcwNTkgJiMxMDtMIDM0NS41MDE1NjMgMTM3LjY0NzA1OSIvPiYjeGE7ICAgPC9nPiYjeGE7ICAgPGcgaWQ9InBhdGNoXzYiPiYjeGE7ICAgIDxwYXRoIHN0eWxlPSJmaWxsOiBub25lOyBzdHJva2U6ICMwMDAwMDA7IHN0cm9rZS13aWR0aDogMC44OyBzdHJva2UtbGluZWpvaW46IG1pdGVyOyBzdHJva2UtbGluZWNhcDogc3F1YXJlIiBkPSJNIDY2LjUwMTU2MyA3LjIgJiMxMDtMIDM0NS41MDE1NjMgNy4yIi8+JiN4YTsgICA8L2c+JiN4YTsgIDwvZz4mI3hhOyAgPGcgaWQ9ImF4ZXNfMiI+JiN4YTsgICA8ZyBpZD0icGF0Y2hfNyI+JiN4YTsgICAgPHBhdGggc3R5bGU9ImZpbGw6ICNmZmZmZmYiIGQ9Ik0gNjYuNTAxNTYzIDI5NC4xODM1MjkgJiMxMDtMIDM0NS41MDE1NjIgMjk0LjE4MzUyOSAmIzEwO0wgMzQ1LjUwMTU2MiAxNjMuNzM2NDcxICYjMTA7TCA2Ni41MDE1NjMgMTYzLjczNjQ3MSAmIzEwO3oiLz4mI3hhOyAgIDwvZz4mI3hhOyAgIDxnIGlkPSJQYXRoQ29sbGVjdGlvbl8yIj4mI3hhOyAgICA8ZyBjbGlwLXBhdGg9InVybCgjcDZmODAzZDZhNmYpIj4mI3hhOyAgICAgPHVzZSBzdHlsZT0iZmlsbDogIzY2YzJhNTsgc3Ryb2tlOiAjMDAwMDAwIiB5PSIyODguMjU0MTE4IiB4PSI4MC42NjMzNzUiIHhsaW5rOmhyZWY9IiNtNGNmZWExYTQ5ZSIvPiYjeGE7ICAgICA8dXNlIHN0eWxlPSJmaWxsOiAjNjZjMmE1OyBzdHJva2U6ICMwMDAwMDAiIHk9IjI4OC4xNTUwNzEiIHg9Ijc5LjM1MjU1IiB4bGluazpocmVmPSIjbTRjZmVhMWE0OWUiLz4mI3hhOyAgICAgPHVzZSBzdHlsZT0iZmlsbDogIzY2YzJhNTsgc3Ryb2tlOiAjMDAwMDAwIiB5PSIyODYuNzQ2NDcyIiB4PSI3OS4zOTA1MTciIHhsaW5rOmhyZWY9IiNtNGNmZWExYTQ5ZSIvPiYjeGE7ICAgICA8dXNlIHN0eWxlPSJmaWxsOiAjNjZjMmE1OyBzdHJva2U6ICMwMDAwMDAiIHk9IjI4Ny45MTU5NTkiIHg9Ijc5LjM3MzQ1NiIgeGxpbms6aHJlZj0iI200Y2ZlYTFhNDllIi8+JiN4YTsgICAgIDx1c2Ugc3R5bGU9ImZpbGw6ICM2NmMyYTU7IHN0cm9rZTogIzAwMDAwMCIgeT0iMjg3LjYwOTc1NSIgeD0iNzkuMzY1NTI2IiB4bGluazpocmVmPSIjbTRjZmVhMWE0OWUiLz4mI3hhOyAgICAgPHVzZSBzdHlsZT0iZmlsbDogIzY2YzJhNTsgc3Ryb2tlOiAjMDAwMDAwIiB5PSIyODYuOTQ1MDQzIiB4PSI3OS4zMjcwNzkiIHhsaW5rOmhyZWY9IiNtNGNmZWExYTQ5ZSIvPiYjeGE7ICAgICA8dXNlIHN0eWxlPSJmaWxsOiAjNjZjMmE1OyBzdHJva2U6ICMwMDAwMDAiIHk9IjI4Ni40MjA4NzMiIHg9Ijc5LjE4MzM4MSIgeGxpbms6aHJlZj0iI200Y2ZlYTFhNDllIi8+JiN4YTsgICAgIDx1c2Ugc3R5bGU9ImZpbGw6ICM2NmMyYTU7IHN0cm9rZTogIzAwMDAwMCIgeT0iMTkxLjA4MTgyMyIgeD0iMzMyLjgxOTc0NCIgeGxpbms6aHJlZj0iI200Y2ZlYTFhNDllIi8+JiN4YTsgICAgIDx1c2Ugc3R5bGU9ImZpbGw6ICM2NmMyYTU7IHN0cm9rZTogIzAwMDAwMCIgeT0iMjAwLjE1NDg4MSIgeD0iMTkyLjAyMjcxMiIgeGxpbms6aHJlZj0iI200Y2ZlYTFhNDllIi8+JiN4YTsgICAgIDx1c2Ugc3R5bGU9ImZpbGw6ICM2NmMyYTU7IHN0cm9rZTogIzAwMDAwMCIgeT0iMjEwLjk0MDM1NiIgeD0iMTQ4Ljg4ODI3NyIgeGxpbms6aHJlZj0iI200Y2ZlYTFhNDllIi8+JiN4YTsgICAgIDx1c2Ugc3R5bGU9ImZpbGw6ICM2NmMyYTU7IHN0cm9rZTogIzAwMDAwMCIgeT0iMTY5LjY2NTg4MiIgeD0iMTcxLjE3NTE4NyIgeGxpbms6aHJlZj0iI200Y2ZlYTFhNDllIi8+JiN4YTsgICAgPC9nPiYjeGE7ICAgPC9nPiYjeGE7ICAgPGcgaWQ9Im1hdHBsb3RsaWIuYXhpc18zIj4mI3hhOyAgICA8ZyBpZD0ieHRpY2tfNyI+JiN4YTsgICAgIDxnIGlkPSJsaW5lMmRfMjEiPiYjeGE7ICAgICAgPHBhdGggc3R5bGU9ImZpbGw6IG5vbmU7IHN0cm9rZTogI2IwYjBiMDsgc3Ryb2tlLXdpZHRoOiAwLjg7IHN0cm9rZS1saW5lY2FwOiBzcXVhcmUiIGNsaXAtcGF0aD0idXJsKCNwNmY4MDNkNmE2ZikiIGQ9Ik0gNzMuNzgxOTY0IDI5NC4xODM1MjkgJiMxMDtMIDczLjc4MTk2NCAxNjMuNzM2NDcxIi8+JiN4YTsgICAgIDwvZz4mI3hhOyAgICAgPGcgaWQ9ImxpbmUyZF8yMiI+JiN4YTsgICAgICA8Zz4mI3hhOyAgICAgICA8dXNlIHN0eWxlPSJzdHJva2U6ICMwMDAwMDA7IHN0cm9rZS13aWR0aDogMC44IiB5PSIyOTQuMTgzNTI5IiB4PSI3My43ODE5NjQiIHhsaW5rOmhyZWY9IiNtNWJiZWVkOWMxZCIvPiYjeGE7ICAgICAgPC9nPiYjeGE7ICAgICA8L2c+JiN4YTsgICAgPC9nPiYjeGE7ICAgIDxnIGlkPSJ4dGlja184Ij4mI3hhOyAgICAgPGcgaWQ9ImxpbmUyZF8yMyI+JiN4YTsgICAgICA8cGF0aCBzdHlsZT0iZmlsbDogbm9uZTsgc3Ryb2tlOiAjYjBiMGIwOyBzdHJva2Utd2lkdGg6IDAuODsgc3Ryb2tlLWxpbmVjYXA6IHNxdWFyZSIgY2xpcC1wYXRoPSJ1cmwoI3A2ZjgwM2Q2YTZmKSIgZD0iTSAxMjEuODQxNTQ2IDI5NC4xODM1MjkgJiMxMDtMIDEyMS44NDE1NDYgMTYzLjczNjQ3MSIvPiYjeGE7ICAgICA8L2c+JiN4YTsgICAgIDxnIGlkPSJsaW5lMmRfMjQiPiYjeGE7ICAgICAgPGc+JiN4YTsgICAgICAgPHVzZSBzdHlsZT0ic3Ryb2tlOiAjMDAwMDAwOyBzdHJva2Utd2lkdGg6IDAuOCIgeT0iMjk0LjE4MzUyOSIgeD0iMTIxLjg0MTU0NiIgeGxpbms6aHJlZj0iI201YmJlZWQ5YzFkIi8+JiN4YTsgICAgICA8L2c+JiN4YTsgICAgIDwvZz4mI3hhOyAgICA8L2c+JiN4YTsgICAgPGcgaWQ9Inh0aWNrXzkiPiYjeGE7ICAgICA8ZyBpZD0ibGluZTJkXzI1Ij4mI3hhOyAgICAgIDxwYXRoIHN0eWxlPSJmaWxsOiBub25lOyBzdHJva2U6ICNiMGIwYjA7IHN0cm9rZS13aWR0aDogMC44OyBzdHJva2UtbGluZWNhcDogc3F1YXJlIiBjbGlwLXBhdGg9InVybCgjcDZmODAzZDZhNmYpIiBkPSJNIDE2OS45MDExMjcgMjk0LjE4MzUyOSAmIzEwO0wgMTY5LjkwMTEyNyAxNjMuNzM2NDcxIi8+JiN4YTsgICAgIDwvZz4mI3hhOyAgICAgPGcgaWQ9ImxpbmUyZF8yNiI+JiN4YTsgICAgICA8Zz4mI3hhOyAgICAgICA8dXNlIHN0eWxlPSJzdHJva2U6ICMwMDAwMDA7IHN0cm9rZS13aWR0aDogMC44IiB5PSIyOTQuMTgzNTI5IiB4PSIxNjkuOTAxMTI3IiB4bGluazpocmVmPSIjbTViYmVlZDljMWQiLz4mI3hhOyAgICAgIDwvZz4mI3hhOyAgICAgPC9nPiYjeGE7ICAgIDwvZz4mI3hhOyAgICA8ZyBpZD0ieHRpY2tfMTAiPiYjeGE7ICAgICA8ZyBpZD0ibGluZTJkXzI3Ij4mI3hhOyAgICAgIDxwYXRoIHN0eWxlPSJmaWxsOiBub25lOyBzdHJva2U6ICNiMGIwYjA7IHN0cm9rZS13aWR0aDogMC44OyBzdHJva2UtbGluZWNhcDogc3F1YXJlIiBjbGlwLXBhdGg9InVybCgjcDZmODAzZDZhNmYpIiBkPSJNIDIxNy45NjA3MDkgMjk0LjE4MzUyOSAmIzEwO0wgMjE3Ljk2MDcwOSAxNjMuNzM2NDcxIi8+JiN4YTsgICAgIDwvZz4mI3hhOyAgICAgPGcgaWQ9ImxpbmUyZF8yOCI+JiN4YTsgICAgICA8Zz4mI3hhOyAgICAgICA8dXNlIHN0eWxlPSJzdHJva2U6ICMwMDAwMDA7IHN0cm9rZS13aWR0aDogMC44IiB5PSIyOTQuMTgzNTI5IiB4PSIyMTcuOTYwNzA5IiB4bGluazpocmVmPSIjbTViYmVlZDljMWQiLz4mI3hhOyAgICAgIDwvZz4mI3hhOyAgICAgPC9nPiYjeGE7ICAgIDwvZz4mI3hhOyAgICA8ZyBpZD0ieHRpY2tfMTEiPiYjeGE7ICAgICA8ZyBpZD0ibGluZTJkXzI5Ij4mI3hhOyAgICAgIDxwYXRoIHN0eWxlPSJmaWxsOiBub25lOyBzdHJva2U6ICNiMGIwYjA7IHN0cm9rZS13aWR0aDogMC44OyBzdHJva2UtbGluZWNhcDogc3F1YXJlIiBjbGlwLXBhdGg9InVybCgjcDZmODAzZDZhNmYpIiBkPSJNIDI2Ni4wMjAyOSAyOTQuMTgzNTI5ICYjMTA7TCAyNjYuMDIwMjkgMTYzLjczNjQ3MSIvPiYjeGE7ICAgICA8L2c+JiN4YTsgICAgIDxnIGlkPSJsaW5lMmRfMzAiPiYjeGE7ICAgICAgPGc+JiN4YTsgICAgICAgPHVzZSBzdHlsZT0ic3Ryb2tlOiAjMDAwMDAwOyBzdHJva2Utd2lkdGg6IDAuOCIgeT0iMjk0LjE4MzUyOSIgeD0iMjY2LjAyMDI5IiB4bGluazpocmVmPSIjbTViYmVlZDljMWQiLz4mI3hhOyAgICAgIDwvZz4mI3hhOyAgICAgPC9nPiYjeGE7ICAgIDwvZz4mI3hhOyAgICA8ZyBpZD0ieHRpY2tfMTIiPiYjeGE7ICAgICA8ZyBpZD0ibGluZTJkXzMxIj4mI3hhOyAgICAgIDxwYXRoIHN0eWxlPSJmaWxsOiBub25lOyBzdHJva2U6ICNiMGIwYjA7IHN0cm9rZS13aWR0aDogMC44OyBzdHJva2UtbGluZWNhcDogc3F1YXJlIiBjbGlwLXBhdGg9InVybCgjcDZmODAzZDZhNmYpIiBkPSJNIDMxNC4wNzk4NzIgMjk0LjE4MzUyOSAmIzEwO0wgMzE0LjA3OTg3MiAxNjMuNzM2NDcxIi8+JiN4YTsgICAgIDwvZz4mI3hhOyAgICAgPGcgaWQ9ImxpbmUyZF8zMiI+JiN4YTsgICAgICA8Zz4mI3hhOyAgICAgICA8dXNlIHN0eWxlPSJzdHJva2U6ICMwMDAwMDA7IHN0cm9rZS13aWR0aDogMC44IiB5PSIyOTQuMTgzNTI5IiB4PSIzMTQuMDc5ODcyIiB4bGluazpocmVmPSIjbTViYmVlZDljMWQiLz4mI3hhOyAgICAgIDwvZz4mI3hhOyAgICAgPC9nPiYjeGE7ICAgIDwvZz4mI3hhOyAgIDwvZz4mI3hhOyAgIDxnIGlkPSJtYXRwbG90bGliLmF4aXNfNCI+JiN4YTsgICAgPGcgaWQ9Inl0aWNrXzUiPiYjeGE7ICAgICA8ZyBpZD0ibGluZTJkXzMzIj4mI3hhOyAgICAgIDxwYXRoIHN0eWxlPSJmaWxsOiBub25lOyBzdHJva2U6ICNiMGIwYjA7IHN0cm9rZS13aWR0aDogMC44OyBzdHJva2UtbGluZWNhcDogc3F1YXJlIiBjbGlwLXBhdGg9InVybCgjcDZmODAzZDZhNmYpIiBkPSJNIDY2LjUwMTU2MyAyNzMuOTcyNTg1ICYjMTA7TCAzNDUuNTAxNTYyIDI3My45NzI1ODUiLz4mI3hhOyAgICAgPC9nPiYjeGE7ICAgICA8ZyBpZD0ibGluZTJkXzM0Ij4mI3hhOyAgICAgIDxnPiYjeGE7ICAgICAgIDx1c2Ugc3R5bGU9InN0cm9rZTogIzAwMDAwMDsgc3Ryb2tlLXdpZHRoOiAwLjgiIHk9IjI3My45NzI1ODUiIHg9IjY2LjUwMTU2MyIgeGxpbms6aHJlZj0iI20yNjQ1MzJmOWU3Ii8+JiN4YTsgICAgICA8L2c+JiN4YTsgICAgIDwvZz4mI3hhOyAgICAgPGcgaWQ9InRleHRfNiI+JiN4YTsgICAgICAmI3hhOyAgICAgIDxnIHRyYW5zZm9ybT0idHJhbnNsYXRlKDUxLjIzMDMxMyAyNzguOTExNTY5KXNjYWxlKDAuMTMgLTAuMTMpIj4mI3hhOyAgICAgICA8dXNlIHhsaW5rOmhyZWY9IiNEZWphVnVTYW5zLTMyIi8+JiN4YTsgICAgICA8L2c+JiN4YTsgICAgIDwvZz4mI3hhOyAgICA8L2c+JiN4YTsgICAgPGcgaWQ9Inl0aWNrXzYiPiYjeGE7ICAgICA8ZyBpZD0ibGluZTJkXzM1Ij4mI3hhOyAgICAgIDxwYXRoIHN0eWxlPSJmaWxsOiBub25lOyBzdHJva2U6ICNiMGIwYjA7IHN0cm9rZS13aWR0aDogMC44OyBzdHJva2UtbGluZWNhcDogc3F1YXJlIiBjbGlwLXBhdGg9InVybCgjcDZmODAzZDZhNmYpIiBkPSJNIDY2LjUwMTU2MyAyNDIuMTc1Nzg0ICYjMTA7TCAzNDUuNTAxNTYyIDI0Mi4xNzU3ODQiLz4mI3hhOyAgICAgPC9nPiYjeGE7ICAgICA8ZyBpZD0ibGluZTJkXzM2Ij4mI3hhOyAgICAgIDxnPiYjeGE7ICAgICAgIDx1c2Ugc3R5bGU9InN0cm9rZTogIzAwMDAwMDsgc3Ryb2tlLXdpZHRoOiAwLjgiIHk9IjI0Mi4xNzU3ODQiIHg9IjY2LjUwMTU2MyIgeGxpbms6aHJlZj0iI20yNjQ1MzJmOWU3Ii8+JiN4YTsgICAgICA8L2c+JiN4YTsgICAgIDwvZz4mI3hhOyAgICAgPGcgaWQ9InRleHRfNyI+JiN4YTsgICAgICAmI3hhOyAgICAgIDxnIHRyYW5zZm9ybT0idHJhbnNsYXRlKDUxLjIzMDMxMyAyNDcuMTE0NzY4KXNjYWxlKDAuMTMgLTAuMTMpIj4mI3hhOyAgICAgICA8ZGVmcz4mI3hhOyAgICAgICAgPHBhdGggdHJhbnNmb3JtPSJzY2FsZSgwLjAxNTYyNSkiIGQ9Ik0gMjQxOSA0MTE2ICYjMTA7TCA4MjUgMTYyNSAmIzEwO0wgMjQxOSAxNjI1ICYjMTA7TCAyNDE5IDQxMTYgJiMxMDt6JiMxMDtNIDIyNTMgNDY2NiAmIzEwO0wgMzA0NyA0NjY2ICYjMTA7TCAzMDQ3IDE2MjUgJiMxMDtMIDM3MTMgMTYyNSAmIzEwO0wgMzcxMyAxMTAwICYjMTA7TCAzMDQ3IDExMDAgJiMxMDtMIDMwNDcgMCAmIzEwO0wgMjQxOSAwICYjMTA7TCAyNDE5IDExMDAgJiMxMDtMIDMxMyAxMTAwICYjMTA7TCAzMTMgMTcwOSAmIzEwO0wgMjI1MyA0NjY2ICYjMTA7eiIgaWQ9IkRlamFWdVNhbnMtMzQiLz4mI3hhOyAgICAgICA8L2RlZnM+JiN4YTsgICAgICAgPHVzZSB4bGluazpocmVmPSIjRGVqYVZ1U2Fucy0zNCIvPiYjeGE7ICAgICAgPC9nPiYjeGE7ICAgICA8L2c+JiN4YTsgICAgPC9nPiYjeGE7ICAgIDxnIGlkPSJ5dGlja183Ij4mI3hhOyAgICAgPGcgaWQ9ImxpbmUyZF8zNyI+JiN4YTsgICAgICA8cGF0aCBzdHlsZT0iZmlsbDogbm9uZTsgc3Ryb2tlOiAjYjBiMGIwOyBzdHJva2Utd2lkdGg6IDAuODsgc3Ryb2tlLWxpbmVjYXA6IHNxdWFyZSIgY2xpcC1wYXRoPSJ1cmwoI3A2ZjgwM2Q2YTZmKSIgZD0iTSA2Ni41MDE1NjMgMjEwLjM3ODk4MyAmIzEwO0wgMzQ1LjUwMTU2MiAyMTAuMzc4OTgzIi8+JiN4YTsgICAgIDwvZz4mI3hhOyAgICAgPGcgaWQ9ImxpbmUyZF8zOCI+JiN4YTsgICAgICA8Zz4mI3hhOyAgICAgICA8dXNlIHN0eWxlPSJzdHJva2U6ICMwMDAwMDA7IHN0cm9rZS13aWR0aDogMC44IiB5PSIyMTAuMzc4OTgzIiB4PSI2Ni41MDE1NjMiIHhsaW5rOmhyZWY9IiNtMjY0NTMyZjllNyIvPiYjeGE7ICAgICAgPC9nPiYjeGE7ICAgICA8L2c+JiN4YTsgICAgIDxnIGlkPSJ0ZXh0XzgiPiYjeGE7ICAgICAgJiN4YTsgICAgICA8ZyB0cmFuc2Zvcm09InRyYW5zbGF0ZSg1MS4yMzAzMTMgMjE1LjMxNzk2NylzY2FsZSgwLjEzIC0wLjEzKSI+JiN4YTsgICAgICAgPGRlZnM+JiN4YTsgICAgICAgIDxwYXRoIHRyYW5zZm9ybT0ic2NhbGUoMC4wMTU2MjUpIiBkPSJNIDIxMTMgMjU4NCAmIzEwO1EgMTY4OCAyNTg0IDE0MzkgMjI5MyAmIzEwO1EgMTE5MSAyMDAzIDExOTEgMTQ5NyAmIzEwO1EgMTE5MSA5OTQgMTQzOSA3MDEgJiMxMDtRIDE2ODggNDA5IDIxMTMgNDA5ICYjMTA7USAyNTM4IDQwOSAyNzg2IDcwMSAmIzEwO1EgMzAzNCA5OTQgMzAzNCAxNDk3ICYjMTA7USAzMDM0IDIwMDMgMjc4NiAyMjkzICYjMTA7USAyNTM4IDI1ODQgMjExMyAyNTg0ICYjMTA7eiYjMTA7TSAzMzY2IDQ1NjMgJiMxMDtMIDMzNjYgMzk4OCAmIzEwO1EgMzEyOCA0MTAwIDI4ODYgNDE1OSAmIzEwO1EgMjY0NCA0MjE5IDI0MDYgNDIxOSAmIzEwO1EgMTc4MSA0MjE5IDE0NTEgMzc5NyAmIzEwO1EgMTEyMiAzMzc1IDEwNzUgMjUyMiAmIzEwO1EgMTI1OSAyNzk0IDE1MzcgMjkzOSAmIzEwO1EgMTgxNiAzMDg0IDIxNTAgMzA4NCAmIzEwO1EgMjg1MyAzMDg0IDMyNjEgMjY1NyAmIzEwO1EgMzY2OSAyMjMxIDM2NjkgMTQ5NyAmIzEwO1EgMzY2OSA3NzggMzI0NCAzNDMgJiMxMDtRIDI4MTkgLTkxIDIxMTMgLTkxICYjMTA7USAxMzAzIC05MSA4NzUgNTI5ICYjMTA7USA0NDcgMTE1MCA0NDcgMjMyOCAmIzEwO1EgNDQ3IDM0MzQgOTcyIDQwOTIgJiMxMDtRIDE0OTcgNDc1MCAyMzgxIDQ3NTAgJiMxMDtRIDI2MTkgNDc1MCAyODYxIDQ3MDMgJiMxMDtRIDMxMDMgNDY1NiAzMzY2IDQ1NjMgJiMxMDt6IiBpZD0iRGVqYVZ1U2Fucy0zNiIvPiYjeGE7ICAgICAgIDwvZGVmcz4mI3hhOyAgICAgICA8dXNlIHhsaW5rOmhyZWY9IiNEZWphVnVTYW5zLTM2Ii8+JiN4YTsgICAgICA8L2c+JiN4YTsgICAgIDwvZz4mI3hhOyAgICA8L2c+JiN4YTsgICAgPGcgaWQ9Inl0aWNrXzgiPiYjeGE7ICAgICA8ZyBpZD0ibGluZTJkXzM5Ij4mI3hhOyAgICAgIDxwYXRoIHN0eWxlPSJmaWxsOiBub25lOyBzdHJva2U6ICNiMGIwYjA7IHN0cm9rZS13aWR0aDogMC44OyBzdHJva2UtbGluZWNhcDogc3F1YXJlIiBjbGlwLXBhdGg9InVybCgjcDZmODAzZDZhNmYpIiBkPSJNIDY2LjUwMTU2MyAxNzguNTgyMTgyICYjMTA7TCAzNDUuNTAxNTYyIDE3OC41ODIxODIiLz4mI3hhOyAgICAgPC9nPiYjeGE7ICAgICA8ZyBpZD0ibGluZTJkXzQwIj4mI3hhOyAgICAgIDxnPiYjeGE7ICAgICAgIDx1c2Ugc3R5bGU9InN0cm9rZTogIzAwMDAwMDsgc3Ryb2tlLXdpZHRoOiAwLjgiIHk9IjE3OC41ODIxODIiIHg9IjY2LjUwMTU2MyIgeGxpbms6aHJlZj0iI20yNjQ1MzJmOWU3Ii8+JiN4YTsgICAgICA8L2c+JiN4YTsgICAgIDwvZz4mI3hhOyAgICAgPGcgaWQ9InRleHRfOSI+JiN4YTsgICAgICAmI3hhOyAgICAgIDxnIHRyYW5zZm9ybT0idHJhbnNsYXRlKDUxLjIzMDMxMyAxODMuNTIxMTY3KXNjYWxlKDAuMTMgLTAuMTMpIj4mI3hhOyAgICAgICA8ZGVmcz4mI3hhOyAgICAgICAgPHBhdGggdHJhbnNmb3JtPSJzY2FsZSgwLjAxNTYyNSkiIGQ9Ik0gMjAzNCAyMjE2ICYjMTA7USAxNTg0IDIyMTYgMTMyNiAxOTc1ICYjMTA7USAxMDY5IDE3MzQgMTA2OSAxMzEzICYjMTA7USAxMDY5IDg5MSAxMzI2IDY1MCAmIzEwO1EgMTU4NCA0MDkgMjAzNCA0MDkgJiMxMDtRIDI0ODQgNDA5IDI3NDMgNjUxICYjMTA7USAzMDAzIDg5NCAzMDAzIDEzMTMgJiMxMDtRIDMwMDMgMTczNCAyNzQ1IDE5NzUgJiMxMDtRIDI0ODggMjIxNiAyMDM0IDIyMTYgJiMxMDt6JiMxMDtNIDE0MDMgMjQ4NCAmIzEwO1EgOTk3IDI1ODQgNzcwIDI4NjIgJiMxMDtRIDU0NCAzMTQxIDU0NCAzNTQxICYjMTA7USA1NDQgNDEwMCA5NDIgNDQyNSAmIzEwO1EgMTM0MSA0NzUwIDIwMzQgNDc1MCAmIzEwO1EgMjczMSA0NzUwIDMxMjggNDQyNSAmIzEwO1EgMzUyNSA0MTAwIDM1MjUgMzU0MSAmIzEwO1EgMzUyNSAzMTQxIDMyOTggMjg2MiAmIzEwO1EgMzA3MiAyNTg0IDI2NjkgMjQ4NCAmIzEwO1EgMzEyNSAyMzc4IDMzNzkgMjA2OCAmIzEwO1EgMzYzNCAxNzU5IDM2MzQgMTMxMyAmIzEwO1EgMzYzNCA2MzQgMzIyMCAyNzEgJiMxMDtRIDI4MDYgLTkxIDIwMzQgLTkxICYjMTA7USAxMjYzIC05MSA4NDggMjcxICYjMTA7USA0MzQgNjM0IDQzNCAxMzEzICYjMTA7USA0MzQgMTc1OSA2OTAgMjA2OCAmIzEwO1EgOTQ3IDIzNzggMTQwMyAyNDg0ICYjMTA7eiYjMTA7TSAxMTcyIDM0ODEgJiMxMDtRIDExNzIgMzExOSAxMzk4IDI5MTYgJiMxMDtRIDE2MjUgMjcxMyAyMDM0IDI3MTMgJiMxMDtRIDI0NDEgMjcxMyAyNjcwIDI5MTYgJiMxMDtRIDI5MDAgMzExOSAyOTAwIDM0ODEgJiMxMDtRIDI5MDAgMzg0NCAyNjcwIDQwNDcgJiMxMDtRIDI0NDEgNDI1MCAyMDM0IDQyNTAgJiMxMDtRIDE2MjUgNDI1MCAxMzk4IDQwNDcgJiMxMDtRIDExNzIgMzg0NCAxMTcyIDM0ODEgJiMxMDt6IiBpZD0iRGVqYVZ1U2Fucy0zOCIvPiYjeGE7ICAgICAgIDwvZGVmcz4mI3hhOyAgICAgICA8dXNlIHhsaW5rOmhyZWY9IiNEZWphVnVTYW5zLTM4Ii8+JiN4YTsgICAgICA8L2c+JiN4YTsgICAgIDwvZz4mI3hhOyAgICA8L2c+JiN4YTsgICAgPGcgaWQ9InRleHRfMTAiPiYjeGE7ICAgICAmI3hhOyAgICAgPGcgdHJhbnNmb3JtPSJ0cmFuc2xhdGUoNDMuMDcwOTM3IDI4NC4xMzgxMjUpcm90YXRlKC05MClzY2FsZSgwLjIgLTAuMikiPiYjeGE7ICAgICAgPGRlZnM+JiN4YTsgICAgICAgPHBhdGggdHJhbnNmb3JtPSJzY2FsZSgwLjAxNTYyNSkiIGQ9Ik0gNjI4IDQ2NjYgJiMxMDtMIDEyNTkgNDY2NiAmIzEwO0wgMTI1OSAwICYjMTA7TCA2MjggMCAmIzEwO0wgNjI4IDQ2NjYgJiMxMDt6IiBpZD0iRGVqYVZ1U2Fucy00OSIvPiYjeGE7ICAgICAgIDxwYXRoIHRyYW5zZm9ybT0ic2NhbGUoMC4wMTU2MjUpIiBkPSJNIDI5MDYgMjk2OSAmIzEwO0wgMjkwNiA0ODYzICYjMTA7TCAzNDgxIDQ4NjMgJiMxMDtMIDM0ODEgMCAmIzEwO0wgMjkwNiAwICYjMTA7TCAyOTA2IDUyNSAmIzEwO1EgMjcyNSAyMTMgMjQ0OCA2MSAmIzEwO1EgMjE3MiAtOTEgMTc4NCAtOTEgJiMxMDtRIDExNTAgLTkxIDc1MSA0MTUgJiMxMDtRIDM1MyA5MjIgMzUzIDE3NDcgJiMxMDtRIDM1MyAyNTcyIDc1MSAzMDc4ICYjMTA7USAxMTUwIDM1ODQgMTc4NCAzNTg0ICYjMTA7USAyMTcyIDM1ODQgMjQ0OCAzNDMyICYjMTA7USAyNzI1IDMyODEgMjkwNiAyOTY5ICYjMTA7eiYjMTA7TSA5NDcgMTc0NyAmIzEwO1EgOTQ3IDExMTMgMTIwOCA3NTIgJiMxMDtRIDE0NjkgMzkxIDE5MjUgMzkxICYjMTA7USAyMzgxIDM5MSAyNjQzIDc1MiAmIzEwO1EgMjkwNiAxMTEzIDI5MDYgMTc0NyAmIzEwO1EgMjkwNiAyMzgxIDI2NDMgMjc0MiAmIzEwO1EgMjM4MSAzMTAzIDE5MjUgMzEwMyAmIzEwO1EgMTQ2OSAzMTAzIDEyMDggMjc0MiAmIzEwO1EgOTQ3IDIzODEgOTQ3IDE3NDcgJiMxMDt6IiBpZD0iRGVqYVZ1U2Fucy02NCIvPiYjeGE7ICAgICAgIDxwYXRoIHRyYW5zZm9ybT0ic2NhbGUoMC4wMTU2MjUpIiBkPSJNIDM1MTMgMzUwMCAmIzEwO0wgMjI0NyAxNzk3ICYjMTA7TCAzNTc4IDAgJiMxMDtMIDI5MDAgMCAmIzEwO0wgMTg4MSAxMzc1ICYjMTA7TCA4NjMgMCAmIzEwO0wgMTg0IDAgJiMxMDtMIDE1NDQgMTgzMSAmIzEwO0wgMzAwIDM1MDAgJiMxMDtMIDk3OCAzNTAwICYjMTA7TCAxOTA2IDIyNTMgJiMxMDtMIDI4MzQgMzUwMCAmIzEwO0wgMzUxMyAzNTAwICYjMTA7eiIgaWQ9IkRlamFWdVNhbnMtNzgiLz4mI3hhOyAgICAgICA8cGF0aCB0cmFuc2Zvcm09InNjYWxlKDAuMDE1NjI1KSIgaWQ9IkRlamFWdVNhbnMtMjAiLz4mI3hhOyAgICAgICA8cGF0aCB0cmFuc2Zvcm09InNjYWxlKDAuMDE1NjI1KSIgZD0iTSAtMTkgNDY2NiAmIzEwO0wgMzkyOCA0NjY2ICYjMTA7TCAzOTI4IDQxMzQgJiMxMDtMIDIyNzIgNDEzNCAmIzEwO0wgMjI3MiAwICYjMTA7TCAxNjM4IDAgJiMxMDtMIDE2MzggNDEzNCAmIzEwO0wgLTE5IDQxMzQgJiMxMDtMIC0xOSA0NjY2ICYjMTA7eiIgaWQ9IkRlamFWdVNhbnMtNTQiLz4mI3hhOyAgICAgICA8cGF0aCB0cmFuc2Zvcm09InNjYWxlKDAuMDE1NjI1KSIgZD0iTSAzMzI4IDI4MjggJiMxMDtRIDM1NDQgMzIxNiAzODQ0IDM0MDAgJiMxMDtRIDQxNDQgMzU4NCA0NTUwIDM1ODQgJiMxMDtRIDUwOTcgMzU4NCA1Mzk0IDMyMDEgJiMxMDtRIDU2OTEgMjgxOSA1NjkxIDIxMTMgJiMxMDtMIDU2OTEgMCAmIzEwO0wgNTExMyAwICYjMTA7TCA1MTEzIDIwOTQgJiMxMDtRIDUxMTMgMjU5NyA0OTM0IDI4NDAgJiMxMDtRIDQ3NTYgMzA4NCA0MzkxIDMwODQgJiMxMDtRIDM5NDQgMzA4NCAzNjg0IDI3ODcgJiMxMDtRIDM0MjUgMjQ5MSAzNDI1IDE5NzggJiMxMDtMIDM0MjUgMCAmIzEwO0wgMjg0NyAwICYjMTA7TCAyODQ3IDIwOTQgJiMxMDtRIDI4NDcgMjYwMCAyNjY5IDI4NDIgJiMxMDtRIDI0OTEgMzA4NCAyMTE5IDMwODQgJiMxMDtRIDE2NzggMzA4NCAxNDE4IDI3ODYgJiMxMDtRIDExNTkgMjQ4OCAxMTU5IDE5NzggJiMxMDtMIDExNTkgMCAmIzEwO0wgNTgxIDAgJiMxMDtMIDU4MSAzNTAwICYjMTA7TCAxMTU5IDM1MDAgJiMxMDtMIDExNTkgMjk1NiAmIzEwO1EgMTM1NiAzMjc4IDE2MzEgMzQzMSAmIzEwO1EgMTkwNiAzNTg0IDIyODQgMzU4NCAmIzEwO1EgMjY2NiAzNTg0IDI5MzMgMzM5MCAmIzEwO1EgMzIwMCAzMTk3IDMzMjggMjgyOCAmIzEwO3oiIGlkPSJEZWphVnVTYW5zLTZkIi8+JiN4YTsgICAgICA8L2RlZnM+JiN4YTsgICAgICA8dXNlIHhsaW5rOmhyZWY9IiNEZWphVnVTYW5zLTQ5Ii8+JiN4YTsgICAgICA8dXNlIHg9IjI5LjQ5MjE4OCIgeGxpbms6aHJlZj0iI0RlamFWdVNhbnMtNmUiLz4mI3hhOyAgICAgIDx1c2UgeD0iOTIuODcxMDk0IiB4bGluazpocmVmPSIjRGVqYVZ1U2Fucy02NCIvPiYjeGE7ICAgICAgPHVzZSB4PSIxNTYuMzQ3NjU2IiB4bGluazpocmVmPSIjRGVqYVZ1U2Fucy02NSIvPiYjeGE7ICAgICAgPHVzZSB4PSIyMTYuMTIxMDk0IiB4bGluazpocmVmPSIjRGVqYVZ1U2Fucy03OCIvPiYjeGE7ICAgICAgPHVzZSB4PSIyNzUuMzAwNzgxIiB4bGluazpocmVmPSIjRGVqYVZ1U2Fucy0yMCIvPiYjeGE7ICAgICAgPHVzZSB4PSIzMDcuMDg3ODkxIiB4bGluazpocmVmPSIjRGVqYVZ1U2Fucy01NCIvPiYjeGE7ICAgICAgPHVzZSB4PSIzNjUuMDQ2ODc1IiB4bGluazpocmVmPSIjRGVqYVZ1U2Fucy02OSIvPiYjeGE7ICAgICAgPHVzZSB4PSIzOTIuODMwMDc4IiB4bGluazpocmVmPSIjRGVqYVZ1U2Fucy02ZCIvPiYjeGE7ICAgICAgPHVzZSB4PSI0OTAuMjQyMTg4IiB4bGluazpocmVmPSIjRGVqYVZ1U2Fucy02NSIvPiYjeGE7ICAgICA8L2c+JiN4YTsgICAgPC9nPiYjeGE7ICAgIDxnIGlkPSJ0ZXh0XzExIj4mI3hhOyAgICAgJiN4YTsgICAgIDxnIHRyYW5zZm9ybT0idHJhbnNsYXRlKDY2LjUwMTU2MyAxNjAuNzM2NDcxKXNjYWxlKDAuMTMgLTAuMTMpIj4mI3hhOyAgICAgIDx1c2UgeGxpbms6aHJlZj0iI0RlamFWdVNhbnMtMzEiLz4mI3hhOyAgICAgIDx1c2UgeD0iNjMuNjIzMDQ3IiB4bGluazpocmVmPSIjRGVqYVZ1U2Fucy02NSIvPiYjeGE7ICAgICAgPHVzZSB4PSIxMjUuMTQ2NDg0IiB4bGluazpocmVmPSIjRGVqYVZ1U2Fucy0zMyIvPiYjeGE7ICAgICA8L2c+JiN4YTsgICAgPC9nPiYjeGE7ICAgPC9nPiYjeGE7ICAgPGcgaWQ9InBhdGNoXzgiPiYjeGE7ICAgIDxwYXRoIHN0eWxlPSJmaWxsOiBub25lOyBzdHJva2U6ICMwMDAwMDA7IHN0cm9rZS13aWR0aDogMC44OyBzdHJva2UtbGluZWpvaW46IG1pdGVyOyBzdHJva2UtbGluZWNhcDogc3F1YXJlIiBkPSJNIDY2LjUwMTU2MyAyOTQuMTgzNTI5ICYjMTA7TCA2Ni41MDE1NjMgMTYzLjczNjQ3MSIvPiYjeGE7ICAgPC9nPiYjeGE7ICAgPGcgaWQ9InBhdGNoXzkiPiYjeGE7ICAgIDxwYXRoIHN0eWxlPSJmaWxsOiBub25lOyBzdHJva2U6ICMwMDAwMDA7IHN0cm9rZS13aWR0aDogMC44OyBzdHJva2UtbGluZWpvaW46IG1pdGVyOyBzdHJva2UtbGluZWNhcDogc3F1YXJlIiBkPSJNIDM0NS41MDE1NjIgMjk0LjE4MzUyOSAmIzEwO0wgMzQ1LjUwMTU2MiAxNjMuNzM2NDcxIi8+JiN4YTsgICA8L2c+JiN4YTsgICA8ZyBpZD0icGF0Y2hfMTAiPiYjeGE7ICAgIDxwYXRoIHN0eWxlPSJmaWxsOiBub25lOyBzdHJva2U6ICMwMDAwMDA7IHN0cm9rZS13aWR0aDogMC44OyBzdHJva2UtbGluZWpvaW46IG1pdGVyOyBzdHJva2UtbGluZWNhcDogc3F1YXJlIiBkPSJNIDY2LjUwMTU2MyAyOTQuMTgzNTI5ICYjMTA7TCAzNDUuNTAxNTYzIDI5NC4xODM1MjkiLz4mI3hhOyAgIDwvZz4mI3hhOyAgIDxnIGlkPSJwYXRjaF8xMSI+JiN4YTsgICAgPHBhdGggc3R5bGU9ImZpbGw6IG5vbmU7IHN0cm9rZTogIzAwMDAwMDsgc3Ryb2tlLXdpZHRoOiAwLjg7IHN0cm9rZS1saW5lam9pbjogbWl0ZXI7IHN0cm9rZS1saW5lY2FwOiBzcXVhcmUiIGQ9Ik0gNjYuNTAxNTYzIDE2My43MzY0NzEgJiMxMDtMIDM0NS41MDE1NjMgMTYzLjczNjQ3MSIvPiYjeGE7ICAgPC9nPiYjeGE7ICA8L2c+JiN4YTsgIDxnIGlkPSJheGVzXzMiPiYjeGE7ICAgPGcgaWQ9InBhdGNoXzEyIj4mI3hhOyAgICA8cGF0aCBzdHlsZT0iZmlsbDogI2ZmZmZmZiIgZD0iTSA2Ni41MDE1NjMgNDUwLjcyICYjMTA7TCAzNDUuNTAxNTYyIDQ1MC43MiAmIzEwO0wgMzQ1LjUwMTU2MiAzMjAuMjcyOTQxICYjMTA7TCA2Ni41MDE1NjMgMzIwLjI3Mjk0MSAmIzEwO3oiLz4mI3hhOyAgIDwvZz4mI3hhOyAgIDxnIGlkPSJQYXRoQ29sbGVjdGlvbl8zIj4mI3hhOyAgICA8ZyBjbGlwLXBhdGg9InVybCgjcDU4MGMxZjM1MTQpIj4mI3hhOyAgICAgPHVzZSBzdHlsZT0iZmlsbDogIzY2YzJhNTsgc3Ryb2tlOiAjMDAwMDAwIiB5PSI0NDQuNzkwNTg4IiB4PSI4MC42NjMzNzUiIHhsaW5rOmhyZWY9IiNtNGNmZWExYTQ5ZSIvPiYjeGE7ICAgICA8dXNlIHN0eWxlPSJmaWxsOiAjNjZjMmE1OyBzdHJva2U6ICMwMDAwMDAiIHk9IjQ0NC43OTA1ODgiIHg9Ijc5LjM1MjU1IiB4bGluazpocmVmPSIjbTRjZmVhMWE0OWUiLz4mI3hhOyAgICAgPHVzZSBzdHlsZT0iZmlsbDogIzY2YzJhNTsgc3Ryb2tlOiAjMDAwMDAwIiB5PSI0NDQuNzkwNTg4IiB4PSI3OS4zOTA1MTciIHhsaW5rOmhyZWY9IiNtNGNmZWExYTQ5ZSIvPiYjeGE7ICAgICA8dXNlIHN0eWxlPSJmaWxsOiAjNjZjMmE1OyBzdHJva2U6ICMwMDAwMDAiIHk9IjQ0NC43OTA1ODgiIHg9Ijc5LjM3MzQ1NiIgeGxpbms6aHJlZj0iI200Y2ZlYTFhNDllIi8+JiN4YTsgICAgIDx1c2Ugc3R5bGU9ImZpbGw6ICM2NmMyYTU7IHN0cm9rZTogIzAwMDAwMCIgeT0iMzI2LjIwMjM1MyIgeD0iNzkuMzY1NTI2IiB4bGluazpocmVmPSIjbTRjZmVhMWE0OWUiLz4mI3hhOyAgICAgPHVzZSBzdHlsZT0iZmlsbDogIzY2YzJhNTsgc3Ryb2tlOiAjMDAwMDAwIiB5PSI0NDQuNzkwNTg4IiB4PSI3OS4zMjcwNzkiIHhsaW5rOmhyZWY9IiNtNGNmZWExYTQ5ZSIvPiYjeGE7ICAgICA8dXNlIHN0eWxlPSJmaWxsOiAjNjZjMmE1OyBzdHJva2U6ICMwMDAwMDAiIHk9IjQ0NC43OTA1ODgiIHg9Ijc5LjE4MzM4MSIgeGxpbms6aHJlZj0iI200Y2ZlYTFhNDllIi8+JiN4YTsgICAgIDx1c2Ugc3R5bGU9ImZpbGw6ICM2NmMyYTU7IHN0cm9rZTogIzAwMDAwMCIgeT0iMzI2LjIwMjM1MyIgeD0iMzMyLjgxOTc0NCIgeGxpbms6aHJlZj0iI200Y2ZlYTFhNDllIi8+JiN4YTsgICAgIDx1c2Ugc3R5bGU9ImZpbGw6ICM2NmMyYTU7IHN0cm9rZTogIzAwMDAwMCIgeT0iMzI2LjIwMjM1MyIgeD0iMTkyLjAyMjcxMiIgeGxpbms6aHJlZj0iI200Y2ZlYTFhNDllIi8+JiN4YTsgICAgIDx1c2Ugc3R5bGU9ImZpbGw6ICM2NmMyYTU7IHN0cm9rZTogIzAwMDAwMCIgeT0iNDQ0Ljc5MDU4OCIgeD0iMTQ4Ljg4ODI3NyIgeGxpbms6aHJlZj0iI200Y2ZlYTFhNDllIi8+JiN4YTsgICAgIDx1c2Ugc3R5bGU9ImZpbGw6ICM2NmMyYTU7IHN0cm9rZTogIzAwMDAwMCIgeT0iNDQ0Ljc5MDU4OCIgeD0iMTcxLjE3NTE4NyIgeGxpbms6aHJlZj0iI200Y2ZlYTFhNDllIi8+JiN4YTsgICAgPC9nPiYjeGE7ICAgPC9nPiYjeGE7ICAgPGcgaWQ9Im1hdHBsb3RsaWIuYXhpc181Ij4mI3hhOyAgICA8ZyBpZD0ieHRpY2tfMTMiPiYjeGE7ICAgICA8ZyBpZD0ibGluZTJkXzQxIj4mI3hhOyAgICAgIDxwYXRoIHN0eWxlPSJmaWxsOiBub25lOyBzdHJva2U6ICNiMGIwYjA7IHN0cm9rZS13aWR0aDogMC44OyBzdHJva2UtbGluZWNhcDogc3F1YXJlIiBjbGlwLXBhdGg9InVybCgjcDU4MGMxZjM1MTQpIiBkPSJNIDczLjc4MTk2NCA0NTAuNzIgJiMxMDtMIDczLjc4MTk2NCAzMjAuMjcyOTQxIi8+JiN4YTsgICAgIDwvZz4mI3hhOyAgICAgPGcgaWQ9ImxpbmUyZF80MiI+JiN4YTsgICAgICA8Zz4mI3hhOyAgICAgICA8dXNlIHN0eWxlPSJzdHJva2U6ICMwMDAwMDA7IHN0cm9rZS13aWR0aDogMC44IiB5PSI0NTAuNzIiIHg9IjczLjc4MTk2NCIgeGxpbms6aHJlZj0iI201YmJlZWQ5YzFkIi8+JiN4YTsgICAgICA8L2c+JiN4YTsgICAgIDwvZz4mI3hhOyAgICAgPGcgaWQ9InRleHRfMTIiPiYjeGE7ICAgICAgJiN4YTsgICAgICA8ZyB0cmFuc2Zvcm09InRyYW5zbGF0ZSg2My40NDQ5MzMgNDY3LjU5Nzk2OSlzY2FsZSgwLjEzIC0wLjEzKSI+JiN4YTsgICAgICAgPHVzZSB4bGluazpocmVmPSIjRGVqYVZ1U2Fucy0zMCIvPiYjeGE7ICAgICAgIDx1c2UgeD0iNjMuNjIzMDQ3IiB4bGluazpocmVmPSIjRGVqYVZ1U2Fucy0yZSIvPiYjeGE7ICAgICAgIDx1c2UgeD0iOTUuNDEwMTU2IiB4bGluazpocmVmPSIjRGVqYVZ1U2Fucy0zMCIvPiYjeGE7ICAgICAgPC9nPiYjeGE7ICAgICA8L2c+JiN4YTsgICAgPC9nPiYjeGE7ICAgIDxnIGlkPSJ4dGlja18xNCI+JiN4YTsgICAgIDxnIGlkPSJsaW5lMmRfNDMiPiYjeGE7ICAgICAgPHBhdGggc3R5bGU9ImZpbGw6IG5vbmU7IHN0cm9rZTogI2IwYjBiMDsgc3Ryb2tlLXdpZHRoOiAwLjg7IHN0cm9rZS1saW5lY2FwOiBzcXVhcmUiIGNsaXAtcGF0aD0idXJsKCNwNTgwYzFmMzUxNCkiIGQ9Ik0gMTIxLjg0MTU0NiA0NTAuNzIgJiMxMDtMIDEyMS44NDE1NDYgMzIwLjI3Mjk0MSIvPiYjeGE7ICAgICA8L2c+JiN4YTsgICAgIDxnIGlkPSJsaW5lMmRfNDQiPiYjeGE7ICAgICAgPGc+JiN4YTsgICAgICAgPHVzZSBzdHlsZT0ic3Ryb2tlOiAjMDAwMDAwOyBzdHJva2Utd2lkdGg6IDAuOCIgeT0iNDUwLjcyIiB4PSIxMjEuODQxNTQ2IiB4bGluazpocmVmPSIjbTViYmVlZDljMWQiLz4mI3hhOyAgICAgIDwvZz4mI3hhOyAgICAgPC9nPiYjeGE7ICAgICA8ZyBpZD0idGV4dF8xMyI+JiN4YTsgICAgICAmI3hhOyAgICAgIDxnIHRyYW5zZm9ybT0idHJhbnNsYXRlKDExMS41MDQ1MTUgNDY3LjU5Nzk2OSlzY2FsZSgwLjEzIC0wLjEzKSI+JiN4YTsgICAgICAgPHVzZSB4bGluazpocmVmPSIjRGVqYVZ1U2Fucy0zMCIvPiYjeGE7ICAgICAgIDx1c2UgeD0iNjMuNjIzMDQ3IiB4bGluazpocmVmPSIjRGVqYVZ1U2Fucy0yZSIvPiYjeGE7ICAgICAgIDx1c2UgeD0iOTUuNDEwMTU2IiB4bGluazpocmVmPSIjRGVqYVZ1U2Fucy0zMiIvPiYjeGE7ICAgICAgPC9nPiYjeGE7ICAgICA8L2c+JiN4YTsgICAgPC9nPiYjeGE7ICAgIDxnIGlkPSJ4dGlja18xNSI+JiN4YTsgICAgIDxnIGlkPSJsaW5lMmRfNDUiPiYjeGE7ICAgICAgPHBhdGggc3R5bGU9ImZpbGw6IG5vbmU7IHN0cm9rZTogI2IwYjBiMDsgc3Ryb2tlLXdpZHRoOiAwLjg7IHN0cm9rZS1saW5lY2FwOiBzcXVhcmUiIGNsaXAtcGF0aD0idXJsKCNwNTgwYzFmMzUxNCkiIGQ9Ik0gMTY5LjkwMTEyNyA0NTAuNzIgJiMxMDtMIDE2OS45MDExMjcgMzIwLjI3Mjk0MSIvPiYjeGE7ICAgICA8L2c+JiN4YTsgICAgIDxnIGlkPSJsaW5lMmRfNDYiPiYjeGE7ICAgICAgPGc+JiN4YTsgICAgICAgPHVzZSBzdHlsZT0ic3Ryb2tlOiAjMDAwMDAwOyBzdHJva2Utd2lkdGg6IDAuOCIgeT0iNDUwLjcyIiB4PSIxNjkuOTAxMTI3IiB4bGluazpocmVmPSIjbTViYmVlZDljMWQiLz4mI3hhOyAgICAgIDwvZz4mI3hhOyAgICAgPC9nPiYjeGE7ICAgICA8ZyBpZD0idGV4dF8xNCI+JiN4YTsgICAgICAmI3hhOyAgICAgIDxnIHRyYW5zZm9ybT0idHJhbnNsYXRlKDE1OS41NjQwOTYgNDY3LjU5Nzk2OSlzY2FsZSgwLjEzIC0wLjEzKSI+JiN4YTsgICAgICAgPHVzZSB4bGluazpocmVmPSIjRGVqYVZ1U2Fucy0zMCIvPiYjeGE7ICAgICAgIDx1c2UgeD0iNjMuNjIzMDQ3IiB4bGluazpocmVmPSIjRGVqYVZ1U2Fucy0yZSIvPiYjeGE7ICAgICAgIDx1c2UgeD0iOTUuNDEwMTU2IiB4bGluazpocmVmPSIjRGVqYVZ1U2Fucy0zNCIvPiYjeGE7ICAgICAgPC9nPiYjeGE7ICAgICA8L2c+JiN4YTsgICAgPC9nPiYjeGE7ICAgIDxnIGlkPSJ4dGlja18xNiI+JiN4YTsgICAgIDxnIGlkPSJsaW5lMmRfNDciPiYjeGE7ICAgICAgPHBhdGggc3R5bGU9ImZpbGw6IG5vbmU7IHN0cm9rZTogI2IwYjBiMDsgc3Ryb2tlLXdpZHRoOiAwLjg7IHN0cm9rZS1saW5lY2FwOiBzcXVhcmUiIGNsaXAtcGF0aD0idXJsKCNwNTgwYzFmMzUxNCkiIGQ9Ik0gMjE3Ljk2MDcwOSA0NTAuNzIgJiMxMDtMIDIxNy45NjA3MDkgMzIwLjI3Mjk0MSIvPiYjeGE7ICAgICA8L2c+JiN4YTsgICAgIDxnIGlkPSJsaW5lMmRfNDgiPiYjeGE7ICAgICAgPGc+JiN4YTsgICAgICAgPHVzZSBzdHlsZT0ic3Ryb2tlOiAjMDAwMDAwOyBzdHJva2Utd2lkdGg6IDAuOCIgeT0iNDUwLjcyIiB4PSIyMTcuOTYwNzA5IiB4bGluazpocmVmPSIjbTViYmVlZDljMWQiLz4mI3hhOyAgICAgIDwvZz4mI3hhOyAgICAgPC9nPiYjeGE7ICAgICA8ZyBpZD0idGV4dF8xNSI+JiN4YTsgICAgICAmI3hhOyAgICAgIDxnIHRyYW5zZm9ybT0idHJhbnNsYXRlKDIwNy42MjM2NzggNDY3LjU5Nzk2OSlzY2FsZSgwLjEzIC0wLjEzKSI+JiN4YTsgICAgICAgPHVzZSB4bGluazpocmVmPSIjRGVqYVZ1U2Fucy0zMCIvPiYjeGE7ICAgICAgIDx1c2UgeD0iNjMuNjIzMDQ3IiB4bGluazpocmVmPSIjRGVqYVZ1U2Fucy0yZSIvPiYjeGE7ICAgICAgIDx1c2UgeD0iOTUuNDEwMTU2IiB4bGluazpocmVmPSIjRGVqYVZ1U2Fucy0zNiIvPiYjeGE7ICAgICAgPC9nPiYjeGE7ICAgICA8L2c+JiN4YTsgICAgPC9nPiYjeGE7ICAgIDxnIGlkPSJ4dGlja18xNyI+JiN4YTsgICAgIDxnIGlkPSJsaW5lMmRfNDkiPiYjeGE7ICAgICAgPHBhdGggc3R5bGU9ImZpbGw6IG5vbmU7IHN0cm9rZTogI2IwYjBiMDsgc3Ryb2tlLXdpZHRoOiAwLjg7IHN0cm9rZS1saW5lY2FwOiBzcXVhcmUiIGNsaXAtcGF0aD0idXJsKCNwNTgwYzFmMzUxNCkiIGQ9Ik0gMjY2LjAyMDI5IDQ1MC43MiAmIzEwO0wgMjY2LjAyMDI5IDMyMC4yNzI5NDEiLz4mI3hhOyAgICAgPC9nPiYjeGE7ICAgICA8ZyBpZD0ibGluZTJkXzUwIj4mI3hhOyAgICAgIDxnPiYjeGE7ICAgICAgIDx1c2Ugc3R5bGU9InN0cm9rZTogIzAwMDAwMDsgc3Ryb2tlLXdpZHRoOiAwLjgiIHk9IjQ1MC43MiIgeD0iMjY2LjAyMDI5IiB4bGluazpocmVmPSIjbTViYmVlZDljMWQiLz4mI3hhOyAgICAgIDwvZz4mI3hhOyAgICAgPC9nPiYjeGE7ICAgICA8ZyBpZD0idGV4dF8xNiI+JiN4YTsgICAgICAmI3hhOyAgICAgIDxnIHRyYW5zZm9ybT0idHJhbnNsYXRlKDI1NS42ODMyNTkgNDY3LjU5Nzk2OSlzY2FsZSgwLjEzIC0wLjEzKSI+JiN4YTsgICAgICAgPHVzZSB4bGluazpocmVmPSIjRGVqYVZ1U2Fucy0zMCIvPiYjeGE7ICAgICAgIDx1c2UgeD0iNjMuNjIzMDQ3IiB4bGluazpocmVmPSIjRGVqYVZ1U2Fucy0yZSIvPiYjeGE7ICAgICAgIDx1c2UgeD0iOTUuNDEwMTU2IiB4bGluazpocmVmPSIjRGVqYVZ1U2Fucy0zOCIvPiYjeGE7ICAgICAgPC9nPiYjeGE7ICAgICA8L2c+JiN4YTsgICAgPC9nPiYjeGE7ICAgIDxnIGlkPSJ4dGlja18xOCI+JiN4YTsgICAgIDxnIGlkPSJsaW5lMmRfNTEiPiYjeGE7ICAgICAgPHBhdGggc3R5bGU9ImZpbGw6IG5vbmU7IHN0cm9rZTogI2IwYjBiMDsgc3Ryb2tlLXdpZHRoOiAwLjg7IHN0cm9rZS1saW5lY2FwOiBzcXVhcmUiIGNsaXAtcGF0aD0idXJsKCNwNTgwYzFmMzUxNCkiIGQ9Ik0gMzE0LjA3OTg3MiA0NTAuNzIgJiMxMDtMIDMxNC4wNzk4NzIgMzIwLjI3Mjk0MSIvPiYjeGE7ICAgICA8L2c+JiN4YTsgICAgIDxnIGlkPSJsaW5lMmRfNTIiPiYjeGE7ICAgICAgPGc+JiN4YTsgICAgICAgPHVzZSBzdHlsZT0ic3Ryb2tlOiAjMDAwMDAwOyBzdHJva2Utd2lkdGg6IDAuOCIgeT0iNDUwLjcyIiB4PSIzMTQuMDc5ODcyIiB4bGluazpocmVmPSIjbTViYmVlZDljMWQiLz4mI3hhOyAgICAgIDwvZz4mI3hhOyAgICAgPC9nPiYjeGE7ICAgICA8ZyBpZD0idGV4dF8xNyI+JiN4YTsgICAgICAmI3hhOyAgICAgIDxnIHRyYW5zZm9ybT0idHJhbnNsYXRlKDMwMy43NDI4NCA0NjcuNTk3OTY5KXNjYWxlKDAuMTMgLTAuMTMpIj4mI3hhOyAgICAgICA8dXNlIHhsaW5rOmhyZWY9IiNEZWphVnVTYW5zLTMxIi8+JiN4YTsgICAgICAgPHVzZSB4PSI2My42MjMwNDciIHhsaW5rOmhyZWY9IiNEZWphVnVTYW5zLTJlIi8+JiN4YTsgICAgICAgPHVzZSB4PSI5NS40MTAxNTYiIHhsaW5rOmhyZWY9IiNEZWphVnVTYW5zLTMwIi8+JiN4YTsgICAgICA8L2c+JiN4YTsgICAgIDwvZz4mI3hhOyAgICA8L2c+JiN4YTsgICAgPGcgaWQ9InRleHRfMTgiPiYjeGE7ICAgICAmI3hhOyAgICAgPGcgdHJhbnNmb3JtPSJ0cmFuc2xhdGUoMTU1LjkyNSA0ODkuNDk4NDM3KXNjYWxlKDAuMiAtMC4yKSI+JiN4YTsgICAgICA8ZGVmcz4mI3hhOyAgICAgICA8cGF0aCB0cmFuc2Zvcm09InNjYWxlKDAuMDE1NjI1KSIgZD0iTSA2MjggNDY2NiAmIzEwO0wgMTQ3OCA0NjY2ICYjMTA7TCAzNTQ3IDc2MyAmIzEwO0wgMzU0NyA0NjY2ICYjMTA7TCA0MTU5IDQ2NjYgJiMxMDtMIDQxNTkgMCAmIzEwO0wgMzMwOSAwICYjMTA7TCAxMjQxIDM5MDMgJiMxMDtMIDEyNDEgMCAmIzEwO0wgNjI4IDAgJiMxMDtMIDYyOCA0NjY2ICYjMTA7eiIgaWQ9IkRlamFWdVNhbnMtNGUiLz4mI3hhOyAgICAgICA8cGF0aCB0cmFuc2Zvcm09InNjYWxlKDAuMDE1NjI1KSIgZD0iTSA1NDQgMTM4MSAmIzEwO0wgNTQ0IDM1MDAgJiMxMDtMIDExMTkgMzUwMCAmIzEwO0wgMTExOSAxNDAzICYjMTA7USAxMTE5IDkwNiAxMzEyIDY1NyAmIzEwO1EgMTUwNiA0MDkgMTg5NCA0MDkgJiMxMDtRIDIzNTkgNDA5IDI2MjkgNzA2ICYjMTA7USAyOTAwIDEwMDMgMjkwMCAxNTE2ICYjMTA7TCAyOTAwIDM1MDAgJiMxMDtMIDM0NzUgMzUwMCAmIzEwO0wgMzQ3NSAwICYjMTA7TCAyOTAwIDAgJiMxMDtMIDI5MDAgNTM4ICYjMTA7USAyNjkxIDIxOSAyNDE0IDY0ICYjMTA7USAyMTM4IC05MSAxNzcyIC05MSAmIzEwO1EgMTE2OSAtOTEgODU2IDI4NCAmIzEwO1EgNTQ0IDY1OSA1NDQgMTM4MSAmIzEwO3omIzEwO00gMTk5MSAzNTg0ICYjMTA7TCAxOTkxIDM1ODQgJiMxMDt6IiBpZD0iRGVqYVZ1U2Fucy03NSIvPiYjeGE7ICAgICAgIDxwYXRoIHRyYW5zZm9ybT0ic2NhbGUoMC4wMTU2MjUpIiBkPSJNIDYyOCA0NjY2ICYjMTA7TCAxMjU5IDQ2NjYgJiMxMDtMIDEyNTkgMjY5NCAmIzEwO0wgMzM1MyA0NjY2ICYjMTA7TCA0MTY2IDQ2NjYgJiMxMDtMIDE4NTAgMjQ5MSAmIzEwO0wgNDMzMSAwICYjMTA7TCAzNTAwIDAgJiMxMDtMIDEyNTkgMjI0NyAmIzEwO0wgMTI1OSAwICYjMTA7TCA2MjggMCAmIzEwO0wgNjI4IDQ2NjYgJiMxMDt6IiBpZD0iRGVqYVZ1U2Fucy00YiIvPiYjeGE7ICAgICAgIDxwYXRoIHRyYW5zZm9ybT0ic2NhbGUoMC4wMTU2MjUpIiBkPSJNIDIwNTkgLTMyNSAmIzEwO1EgMTgxNiAtOTUwIDE1ODQgLTExNDAgJiMxMDtRIDEzNTMgLTEzMzEgOTY2IC0xMzMxICYjMTA7TCA1MDYgLTEzMzEgJiMxMDtMIDUwNiAtODUwICYjMTA7TCA4NDQgLTg1MCAmIzEwO1EgMTA4MSAtODUwIDEyMTIgLTczNyAmIzEwO1EgMTM0NCAtNjI1IDE1MDMgLTIwNiAmIzEwO0wgMTYwNiA1NiAmIzEwO0wgMTkxIDM1MDAgJiMxMDtMIDgwMCAzNTAwICYjMTA7TCAxODk0IDc2MyAmIzEwO0wgMjk4OCAzNTAwICYjMTA7TCAzNTk3IDM1MDAgJiMxMDtMIDIwNTkgLTMyNSAmIzEwO3oiIGlkPSJEZWphVnVTYW5zLTc5Ii8+JiN4YTsgICAgICA8L2RlZnM+JiN4YTsgICAgICA8dXNlIHhsaW5rOmhyZWY9IiNEZWphVnVTYW5zLTRlIi8+JiN4YTsgICAgICA8dXNlIHg9Ijc0LjgwNDY4OCIgeGxpbms6aHJlZj0iI0RlamFWdVNhbnMtNzUiLz4mI3hhOyAgICAgIDx1c2UgeD0iMTM4LjE4MzU5NCIgeGxpbms6aHJlZj0iI0RlamFWdVNhbnMtNmQiLz4mI3hhOyAgICAgIDx1c2UgeD0iMjM1LjU5NTcwMyIgeGxpbms6aHJlZj0iI0RlamFWdVNhbnMtMjAiLz4mI3hhOyAgICAgIDx1c2UgeD0iMjY3LjM4MjgxMiIgeGxpbms6aHJlZj0iI0RlamFWdVNhbnMtNGIiLz4mI3hhOyAgICAgIDx1c2UgeD0iMzI3Ljk1ODk4NCIgeGxpbms6aHJlZj0iI0RlamFWdVNhbnMtNjUiLz4mI3hhOyAgICAgIDx1c2UgeD0iMzg5LjQ4MjQyMiIgeGxpbms6aHJlZj0iI0RlamFWdVNhbnMtNzkiLz4mI3hhOyAgICAgIDx1c2UgeD0iNDQ4LjY2MjEwOSIgeGxpbms6aHJlZj0iI0RlamFWdVNhbnMtNzMiLz4mI3hhOyAgICAgPC9nPiYjeGE7ICAgIDwvZz4mI3hhOyAgICA8ZyBpZD0idGV4dF8xOSI+JiN4YTsgICAgICYjeGE7ICAgICA8ZyB0cmFuc2Zvcm09InRyYW5zbGF0ZSgzMjAuOTYgNDgzLjE3OTUzMSlzY2FsZSgwLjEzIC0wLjEzKSI+JiN4YTsgICAgICA8dXNlIHhsaW5rOmhyZWY9IiNEZWphVnVTYW5zLTMxIi8+JiN4YTsgICAgICA8dXNlIHg9IjYzLjYyMzA0NyIgeGxpbms6aHJlZj0iI0RlamFWdVNhbnMtNjUiLz4mI3hhOyAgICAgIDx1c2UgeD0iMTI1LjE0NjQ4NCIgeGxpbms6aHJlZj0iI0RlamFWdVNhbnMtMzYiLz4mI3hhOyAgICAgPC9nPiYjeGE7ICAgIDwvZz4mI3hhOyAgIDwvZz4mI3hhOyAgIDxnIGlkPSJtYXRwbG90bGliLmF4aXNfNiI+JiN4YTsgICAgPGcgaWQ9Inl0aWNrXzkiPiYjeGE7ICAgICA8ZyBpZD0ibGluZTJkXzUzIj4mI3hhOyAgICAgIDxwYXRoIHN0eWxlPSJmaWxsOiBub25lOyBzdHJva2U6ICNiMGIwYjA7IHN0cm9rZS13aWR0aDogMC44OyBzdHJva2UtbGluZWNhcDogc3F1YXJlIiBjbGlwLXBhdGg9InVybCgjcDU4MGMxZjM1MTQpIiBkPSJNIDY2LjUwMTU2MyA0NDQuNzkwNTg4ICYjMTA7TCAzNDUuNTAxNTYyIDQ0NC43OTA1ODgiLz4mI3hhOyAgICAgPC9nPiYjeGE7ICAgICA8ZyBpZD0ibGluZTJkXzU0Ij4mI3hhOyAgICAgIDxnPiYjeGE7ICAgICAgIDx1c2Ugc3R5bGU9InN0cm9rZTogIzAwMDAwMDsgc3Ryb2tlLXdpZHRoOiAwLjgiIHk9IjQ0NC43OTA1ODgiIHg9IjY2LjUwMTU2MyIgeGxpbms6aHJlZj0iI20yNjQ1MzJmOWU3Ii8+JiN4YTsgICAgICA8L2c+JiN4YTsgICAgIDwvZz4mI3hhOyAgICAgPGcgaWQ9InRleHRfMjAiPiYjeGE7ICAgICAgJiN4YTsgICAgICA8ZyB0cmFuc2Zvcm09InRyYW5zbGF0ZSgzOC44Mjc1IDQ0OS43Mjk1NzMpc2NhbGUoMC4xMyAtMC4xMykiPiYjeGE7ICAgICAgIDx1c2UgeGxpbms6aHJlZj0iI0RlamFWdVNhbnMtMzAiLz4mI3hhOyAgICAgICA8dXNlIHg9IjYzLjYyMzA0NyIgeGxpbms6aHJlZj0iI0RlamFWdVNhbnMtMmUiLz4mI3hhOyAgICAgICA8dXNlIHg9Ijk1LjQxMDE1NiIgeGxpbms6aHJlZj0iI0RlamFWdVNhbnMtMzAiLz4mI3hhOyAgICAgIDwvZz4mI3hhOyAgICAgPC9nPiYjeGE7ICAgIDwvZz4mI3hhOyAgICA8ZyBpZD0ieXRpY2tfMTAiPiYjeGE7ICAgICA8ZyBpZD0ibGluZTJkXzU1Ij4mI3hhOyAgICAgIDxwYXRoIHN0eWxlPSJmaWxsOiBub25lOyBzdHJva2U6ICNiMGIwYjA7IHN0cm9rZS13aWR0aDogMC44OyBzdHJva2UtbGluZWNhcDogc3F1YXJlIiBjbGlwLXBhdGg9InVybCgjcDU4MGMxZjM1MTQpIiBkPSJNIDY2LjUwMTU2MyA0MTIuNjQ3MTgzICYjMTA7TCAzNDUuNTAxNTYyIDQxMi42NDcxODMiLz4mI3hhOyAgICAgPC9nPiYjeGE7ICAgICA8ZyBpZD0ibGluZTJkXzU2Ij4mI3hhOyAgICAgIDxnPiYjeGE7ICAgICAgIDx1c2Ugc3R5bGU9InN0cm9rZTogIzAwMDAwMDsgc3Ryb2tlLXdpZHRoOiAwLjgiIHk9IjQxMi42NDcxODMiIHg9IjY2LjUwMTU2MyIgeGxpbms6aHJlZj0iI20yNjQ1MzJmOWU3Ii8+JiN4YTsgICAgICA8L2c+JiN4YTsgICAgIDwvZz4mI3hhOyAgICAgPGcgaWQ9InRleHRfMjEiPiYjeGE7ICAgICAgJiN4YTsgICAgICA8ZyB0cmFuc2Zvcm09InRyYW5zbGF0ZSgzOC44Mjc1IDQxNy41ODYxNjcpc2NhbGUoMC4xMyAtMC4xMykiPiYjeGE7ICAgICAgIDx1c2UgeGxpbms6aHJlZj0iI0RlamFWdVNhbnMtMzAiLz4mI3hhOyAgICAgICA8dXNlIHg9IjYzLjYyMzA0NyIgeGxpbms6aHJlZj0iI0RlamFWdVNhbnMtMmUiLz4mI3hhOyAgICAgICA8dXNlIHg9Ijk1LjQxMDE1NiIgeGxpbms6aHJlZj0iI0RlamFWdVNhbnMtMzUiLz4mI3hhOyAgICAgIDwvZz4mI3hhOyAgICAgPC9nPiYjeGE7ICAgIDwvZz4mI3hhOyAgICA8ZyBpZD0ieXRpY2tfMTEiPiYjeGE7ICAgICA8ZyBpZD0ibGluZTJkXzU3Ij4mI3hhOyAgICAgIDxwYXRoIHN0eWxlPSJmaWxsOiBub25lOyBzdHJva2U6ICNiMGIwYjA7IHN0cm9rZS13aWR0aDogMC44OyBzdHJva2UtbGluZWNhcDogc3F1YXJlIiBjbGlwLXBhdGg9InVybCgjcDU4MGMxZjM1MTQpIiBkPSJNIDY2LjUwMTU2MyAzODAuNTAzNzc3ICYjMTA7TCAzNDUuNTAxNTYyIDM4MC41MDM3NzciLz4mI3hhOyAgICAgPC9nPiYjeGE7ICAgICA8ZyBpZD0ibGluZTJkXzU4Ij4mI3hhOyAgICAgIDxnPiYjeGE7ICAgICAgIDx1c2Ugc3R5bGU9InN0cm9rZTogIzAwMDAwMDsgc3Ryb2tlLXdpZHRoOiAwLjgiIHk9IjM4MC41MDM3NzciIHg9IjY2LjUwMTU2MyIgeGxpbms6aHJlZj0iI20yNjQ1MzJmOWU3Ii8+JiN4YTsgICAgICA8L2c+JiN4YTsgICAgIDwvZz4mI3hhOyAgICAgPGcgaWQ9InRleHRfMjIiPiYjeGE7ICAgICAgJiN4YTsgICAgICA8ZyB0cmFuc2Zvcm09InRyYW5zbGF0ZSgzOC44Mjc1IDM4NS40NDI3NjEpc2NhbGUoMC4xMyAtMC4xMykiPiYjeGE7ICAgICAgIDx1c2UgeGxpbms6aHJlZj0iI0RlamFWdVNhbnMtMzEiLz4mI3hhOyAgICAgICA8dXNlIHg9IjYzLjYyMzA0NyIgeGxpbms6aHJlZj0iI0RlamFWdVNhbnMtMmUiLz4mI3hhOyAgICAgICA8dXNlIHg9Ijk1LjQxMDE1NiIgeGxpbms6aHJlZj0iI0RlamFWdVNhbnMtMzAiLz4mI3hhOyAgICAgIDwvZz4mI3hhOyAgICAgPC9nPiYjeGE7ICAgIDwvZz4mI3hhOyAgICA8ZyBpZD0ieXRpY2tfMTIiPiYjeGE7ICAgICA8ZyBpZD0ibGluZTJkXzU5Ij4mI3hhOyAgICAgIDxwYXRoIHN0eWxlPSJmaWxsOiBub25lOyBzdHJva2U6ICNiMGIwYjA7IHN0cm9rZS13aWR0aDogMC44OyBzdHJva2UtbGluZWNhcDogc3F1YXJlIiBjbGlwLXBhdGg9InVybCgjcDU4MGMxZjM1MTQpIiBkPSJNIDY2LjUwMTU2MyAzNDguMzYwMzcxICYjMTA7TCAzNDUuNTAxNTYyIDM0OC4zNjAzNzEiLz4mI3hhOyAgICAgPC9nPiYjeGE7ICAgICA8ZyBpZD0ibGluZTJkXzYwIj4mI3hhOyAgICAgIDxnPiYjeGE7ICAgICAgIDx1c2Ugc3R5bGU9InN0cm9rZTogIzAwMDAwMDsgc3Ryb2tlLXdpZHRoOiAwLjgiIHk9IjM0OC4zNjAzNzEiIHg9IjY2LjUwMTU2MyIgeGxpbms6aHJlZj0iI20yNjQ1MzJmOWU3Ii8+JiN4YTsgICAgICA8L2c+JiN4YTsgICAgIDwvZz4mI3hhOyAgICAgPGcgaWQ9InRleHRfMjMiPiYjeGE7ICAgICAgJiN4YTsgICAgICA8ZyB0cmFuc2Zvcm09InRyYW5zbGF0ZSgzOC44Mjc1IDM1My4yOTkzNTYpc2NhbGUoMC4xMyAtMC4xMykiPiYjeGE7ICAgICAgIDx1c2UgeGxpbms6aHJlZj0iI0RlamFWdVNhbnMtMzEiLz4mI3hhOyAgICAgICA8dXNlIHg9IjYzLjYyMzA0NyIgeGxpbms6aHJlZj0iI0RlamFWdVNhbnMtMmUiLz4mI3hhOyAgICAgICA8dXNlIHg9Ijk1LjQxMDE1NiIgeGxpbms6aHJlZj0iI0RlamFWdVNhbnMtMzUiLz4mI3hhOyAgICAgIDwvZz4mI3hhOyAgICAgPC9nPiYjeGE7ICAgIDwvZz4mI3hhOyAgICA8ZyBpZD0idGV4dF8yNCI+JiN4YTsgICAgICYjeGE7ICAgICA8ZyB0cmFuc2Zvcm09InRyYW5zbGF0ZSgzMC42NjgxMjUgNDM2LjczNTUzMylyb3RhdGUoLTkwKXNjYWxlKDAuMiAtMC4yKSI+JiN4YTsgICAgICA8ZGVmcz4mI3hhOyAgICAgICA8cGF0aCB0cmFuc2Zvcm09InNjYWxlKDAuMDE1NjI1KSIgZD0iTSAzNDI1IDQ1MTMgJiMxMDtMIDM0MjUgMzg5NyAmIzEwO1EgMzA2NiA0MDY5IDI3NDcgNDE1MyAmIzEwO1EgMjQyOCA0MjM4IDIxMzEgNDIzOCAmIzEwO1EgMTYxNiA0MjM4IDEzMzYgNDAzOCAmIzEwO1EgMTA1NiAzODM4IDEwNTYgMzQ2OSAmIzEwO1EgMTA1NiAzMTU5IDEyNDIgMzAwMSAmIzEwO1EgMTQyOCAyODQ0IDE5NDcgMjc0NyAmIzEwO0wgMjMyOCAyNjY5ICYjMTA7USAzMDM0IDI1MzQgMzM3MCAyMTk1ICYjMTA7USAzNzA2IDE4NTYgMzcwNiAxMjg4ICYjMTA7USAzNzA2IDYwOSAzMjUxIDI1OSAmIzEwO1EgMjc5NyAtOTEgMTkxOSAtOTEgJiMxMDtRIDE1ODggLTkxIDEyMTQgLTE2ICYjMTA7USA4NDEgNTkgNDQxIDIwNiAmIzEwO0wgNDQxIDg1NiAmIzEwO1EgODI1IDY0MSAxMTk0IDUzMSAmIzEwO1EgMTU2MyA0MjIgMTkxOSA0MjIgJiMxMDtRIDI0NTkgNDIyIDI3NTMgNjM0ICYjMTA7USAzMDQ3IDg0NyAzMDQ3IDEyNDEgJiMxMDtRIDMwNDcgMTU4NCAyODM2IDE3NzggJiMxMDtRIDI2MjUgMTk3MiAyMTQ0IDIwNjkgJiMxMDtMIDE3NTkgMjE0NCAmIzEwO1EgMTA1MyAyMjg0IDczNyAyNTg0ICYjMTA7USA0MjIgMjg4NCA0MjIgMzQxOSAmIzEwO1EgNDIyIDQwMzggODU4IDQzOTQgJiMxMDtRIDEyOTQgNDc1MCAyMDU5IDQ3NTAgJiMxMDtRIDIzODggNDc1MCAyNzI4IDQ2OTAgJiMxMDtRIDMwNjkgNDYzMSAzNDI1IDQ1MTMgJiMxMDt6IiBpZD0iRGVqYVZ1U2Fucy01MyIvPiYjeGE7ICAgICAgIDxwYXRoIHRyYW5zZm9ybT0ic2NhbGUoMC4wMTU2MjUpIiBkPSJNIDM1MyAzNTAwICYjMTA7TCAzMDg0IDM1MDAgJiMxMDtMIDMwODQgMjk3NSAmIzEwO0wgOTIyIDQ1OSAmIzEwO0wgMzA4NCA0NTkgJiMxMDtMIDMwODQgMCAmIzEwO0wgMjc1IDAgJiMxMDtMIDI3NSA1MjUgJiMxMDtMIDI0MzggMzA0MSAmIzEwO0wgMzUzIDMwNDEgJiMxMDtMIDM1MyAzNTAwICYjMTA7eiIgaWQ9IkRlamFWdVNhbnMtN2EiLz4mI3hhOyAgICAgIDwvZGVmcz4mI3hhOyAgICAgIDx1c2UgeGxpbms6aHJlZj0iI0RlamFWdVNhbnMtNDkiLz4mI3hhOyAgICAgIDx1c2UgeD0iMjkuNDkyMTg4IiB4bGluazpocmVmPSIjRGVqYVZ1U2Fucy02ZSIvPiYjeGE7ICAgICAgPHVzZSB4PSI5Mi44NzEwOTQiIHhsaW5rOmhyZWY9IiNEZWphVnVTYW5zLTY0Ii8+JiN4YTsgICAgICA8dXNlIHg9IjE1Ni4zNDc2NTYiIHhsaW5rOmhyZWY9IiNEZWphVnVTYW5zLTY1Ii8+JiN4YTsgICAgICA8dXNlIHg9IjIxNi4xMjEwOTQiIHhsaW5rOmhyZWY9IiNEZWphVnVTYW5zLTc4Ii8+JiN4YTsgICAgICA8dXNlIHg9IjI3NS4zMDA3ODEiIHhsaW5rOmhyZWY9IiNEZWphVnVTYW5zLTIwIi8+JiN4YTsgICAgICA8dXNlIHg9IjMwNy4wODc4OTEiIHhsaW5rOmhyZWY9IiNEZWphVnVTYW5zLTUzIi8+JiN4YTsgICAgICA8dXNlIHg9IjM3MC41NjQ0NTMiIHhsaW5rOmhyZWY9IiNEZWphVnVTYW5zLTY5Ii8+JiN4YTsgICAgICA8dXNlIHg9IjM5OC4zNDc2NTYiIHhsaW5rOmhyZWY9IiNEZWphVnVTYW5zLTdhIi8+JiN4YTsgICAgICA8dXNlIHg9IjQ1MC44Mzc4OTEiIHhsaW5rOmhyZWY9IiNEZWphVnVTYW5zLTY1Ii8+JiN4YTsgICAgIDwvZz4mI3hhOyAgICA8L2c+JiN4YTsgICAgPGcgaWQ9InRleHRfMjUiPiYjeGE7ICAgICAmI3hhOyAgICAgPGcgdHJhbnNmb3JtPSJ0cmFuc2xhdGUoNjYuNTAxNTYzIDMxNy4yNzI5NDEpc2NhbGUoMC4xMyAtMC4xMykiPiYjeGE7ICAgICAgPGRlZnM+JiN4YTsgICAgICAgPHBhdGggdHJhbnNmb3JtPSJzY2FsZSgwLjAxNTYyNSkiIGQ9Ik0gNzAzIDk3ICYjMTA7TCA3MDMgNjcyICYjMTA7USA5NDEgNTU5IDExODQgNTAwICYjMTA7USAxNDI4IDQ0MSAxNjYzIDQ0MSAmIzEwO1EgMjI4OCA0NDEgMjYxNyA4NjEgJiMxMDtRIDI5NDcgMTI4MSAyOTk0IDIxMzggJiMxMDtRIDI4MTMgMTg2OSAyNTM0IDE3MjUgJiMxMDtRIDIyNTYgMTU4MSAxOTE5IDE1ODEgJiMxMDtRIDEyMTkgMTU4MSA4MTEgMjAwNCAmIzEwO1EgNDAzIDI0MjggNDAzIDMxNjMgJiMxMDtRIDQwMyAzODgxIDgyOCA0MzE1ICYjMTA7USAxMjUzIDQ3NTAgMTk1OSA0NzUwICYjMTA7USAyNzY5IDQ3NTAgMzE5NSA0MTI5ICYjMTA7USAzNjIyIDM1MDkgMzYyMiAyMzI4ICYjMTA7USAzNjIyIDEyMjUgMzA5OCA1NjcgJiMxMDtRIDI1NzUgLTkxIDE2OTEgLTkxICYjMTA7USAxNDUzIC05MSAxMjA5IC00NCAmIzEwO1EgOTY2IDMgNzAzIDk3ICYjMTA7eiYjMTA7TSAxOTU5IDIwNzUgJiMxMDtRIDIzODQgMjA3NSAyNjMyIDIzNjUgJiMxMDtRIDI4ODEgMjY1NiAyODgxIDMxNjMgJiMxMDtRIDI4ODEgMzY2NiAyNjMyIDM5NTggJiMxMDtRIDIzODQgNDI1MCAxOTU5IDQyNTAgJiMxMDtRIDE1MzQgNDI1MCAxMjg2IDM5NTggJiMxMDtRIDEwMzggMzY2NiAxMDM4IDMxNjMgJiMxMDtRIDEwMzggMjY1NiAxMjg2IDIzNjUgJiMxMDtRIDE1MzQgMjA3NSAxOTU5IDIwNzUgJiMxMDt6IiBpZD0iRGVqYVZ1U2Fucy0zOSIvPiYjeGE7ICAgICAgPC9kZWZzPiYjeGE7ICAgICAgPHVzZSB4bGluazpocmVmPSIjRGVqYVZ1U2Fucy0zMSIvPiYjeGE7ICAgICAgPHVzZSB4PSI2My42MjMwNDciIHhsaW5rOmhyZWY9IiNEZWphVnVTYW5zLTY1Ii8+JiN4YTsgICAgICA8dXNlIHg9IjEyNS4xNDY0ODQiIHhsaW5rOmhyZWY9IiNEZWphVnVTYW5zLTMxIi8+JiN4YTsgICAgICA8dXNlIHg9IjE4OC43Njk1MzEiIHhsaW5rOmhyZWY9IiNEZWphVnVTYW5zLTM5Ii8+JiN4YTsgICAgIDwvZz4mI3hhOyAgICA8L2c+JiN4YTsgICA8L2c+JiN4YTsgICA8ZyBpZD0icGF0Y2hfMTMiPiYjeGE7ICAgIDxwYXRoIHN0eWxlPSJmaWxsOiBub25lOyBzdHJva2U6ICMwMDAwMDA7IHN0cm9rZS13aWR0aDogMC44OyBzdHJva2UtbGluZWpvaW46IG1pdGVyOyBzdHJva2UtbGluZWNhcDogc3F1YXJlIiBkPSJNIDY2LjUwMTU2MyA0NTAuNzIgJiMxMDtMIDY2LjUwMTU2MyAzMjAuMjcyOTQxIi8+JiN4YTsgICA8L2c+JiN4YTsgICA8ZyBpZD0icGF0Y2hfMTQiPiYjeGE7ICAgIDxwYXRoIHN0eWxlPSJmaWxsOiBub25lOyBzdHJva2U6ICMwMDAwMDA7IHN0cm9rZS13aWR0aDogMC44OyBzdHJva2UtbGluZWpvaW46IG1pdGVyOyBzdHJva2UtbGluZWNhcDogc3F1YXJlIiBkPSJNIDM0NS41MDE1NjIgNDUwLjcyICYjMTA7TCAzNDUuNTAxNTYyIDMyMC4yNzI5NDEiLz4mI3hhOyAgIDwvZz4mI3hhOyAgIDxnIGlkPSJwYXRjaF8xNSI+JiN4YTsgICAgPHBhdGggc3R5bGU9ImZpbGw6IG5vbmU7IHN0cm9rZTogIzAwMDAwMDsgc3Ryb2tlLXdpZHRoOiAwLjg7IHN0cm9rZS1saW5lam9pbjogbWl0ZXI7IHN0cm9rZS1saW5lY2FwOiBzcXVhcmUiIGQ9Ik0gNjYuNTAxNTYzIDQ1MC43MiAmIzEwO0wgMzQ1LjUwMTU2MyA0NTAuNzIiLz4mI3hhOyAgIDwvZz4mI3hhOyAgIDxnIGlkPSJwYXRjaF8xNiI+JiN4YTsgICAgPHBhdGggc3R5bGU9ImZpbGw6IG5vbmU7IHN0cm9rZTogIzAwMDAwMDsgc3Ryb2tlLXdpZHRoOiAwLjg7IHN0cm9rZS1saW5lam9pbjogbWl0ZXI7IHN0cm9rZS1saW5lY2FwOiBzcXVhcmUiIGQ9Ik0gNjYuNTAxNTYzIDMyMC4yNzI5NDEgJiMxMDtMIDM0NS41MDE1NjMgMzIwLjI3Mjk0MSIvPiYjeGE7ICAgPC9nPiYjeGE7ICA8L2c+JiN4YTsgPC9nPiYjeGE7IDxkZWZzPiYjeGE7ICA8Y2xpcFBhdGggaWQ9InBkODA5YzhhYjYxIj4mI3hhOyAgIDxyZWN0IGhlaWdodD0iMTMwLjQ0NzA1OSIgd2lkdGg9IjI3OSIgeT0iNy4yIiB4PSI2Ni41MDE1NjMiLz4mI3hhOyAgPC9jbGlwUGF0aD4mI3hhOyAgPGNsaXBQYXRoIGlkPSJwNmY4MDNkNmE2ZiI+JiN4YTsgICA8cmVjdCBoZWlnaHQ9IjEzMC40NDcwNTkiIHdpZHRoPSIyNzkiIHk9IjE2My43MzY0NzEiIHg9IjY2LjUwMTU2MyIvPiYjeGE7ICA8L2NsaXBQYXRoPiYjeGE7ICA8Y2xpcFBhdGggaWQ9InA1ODBjMWYzNTE0Ij4mI3hhOyAgIDxyZWN0IGhlaWdodD0iMTMwLjQ0NzA1OSIgd2lkdGg9IjI3OSIgeT0iMzIwLjI3Mjk0MSIgeD0iNjYuNTAxNTYzIi8+JiN4YTsgIDwvY2xpcFBhdGg+JiN4YTsgPC9kZWZzPiYjeGE7PC9zdmc+;" vertex="1" parent="1">
          <mxGeometry x="170" y="130" width="353" height="501" as="geometry" />
        </mxCell>
        <mxCell id="xpL8FgRuAcjYB7nAr3ik-3" value="" style="rounded=1;whiteSpace=wrap;html=1;fillColor=none;strokeColor=#FF0000;strokeWidth=3;dashed=1;" vertex="1" parent="1">
          <mxGeometry x="270" y="125" width="134.5" height="480" as="geometry" />
        </mxCell>
      </root>
    </mxGraphModel>
  </diagram>
</mxfile>
